<?xml version="1.0" encoding="UTF-8" standalone="no"?>
<!-- Created with Inkscape (http://www.inkscape.org/) -->

<svg
   xmlns:dc="http://purl.org/dc/elements/1.1/"
   xmlns:cc="http://creativecommons.org/ns#"
   xmlns:rdf="http://www.w3.org/1999/02/22-rdf-syntax-ns#"
   xmlns:svg="http://www.w3.org/2000/svg"
   xmlns="http://www.w3.org/2000/svg"
   xmlns:sodipodi="http://sodipodi.sourceforge.net/DTD/sodipodi-0.dtd"
   xmlns:inkscape="http://www.inkscape.org/namespaces/inkscape"
   width="99.965698mm"
   height="115.12572mm"
   viewBox="0 0 354.20917 407.92577"
   id="svg4572"
   version="1.1"
   inkscape:version="0.91 r13725"
   sodipodi:docname="Alphabet19N.svg">
  <defs
     id="defs4574">
    <linearGradient
       x1="0"
       y1="0"
       x2="1"
       y2="0"
       gradientUnits="userSpaceOnUse"
       gradientTransform="matrix(-1.825e-5,417.36086,-417.36086,-1.825e-5,-1284.9958,-190.58839)"
       spreadMethod="pad"
       id="linearGradient304">
      <stop
         style="stop-opacity:1;stop-color:#fdc82c"
         offset="0"
         id="stop306" />
      <stop
         style="stop-opacity:1;stop-color:#fdc82c"
         offset="0.239968"
         id="stop308" />
      <stop
         style="stop-opacity:1;stop-color:#236f46"
         offset="1"
         id="stop310" />
    </linearGradient>
  </defs>
  <sodipodi:namedview
     id="base"
     pagecolor="#ffffff"
     bordercolor="#666666"
     borderopacity="1.0"
     inkscape:pageopacity="0.0"
     inkscape:pageshadow="2"
     inkscape:zoom="1.299256"
     inkscape:cx="177.10458"
     inkscape:cy="203.96288"
     inkscape:document-units="px"
     inkscape:current-layer="layer1"
     showgrid="false"
     fit-margin-top="0"
     fit-margin-left="0"
     fit-margin-right="0"
     fit-margin-bottom="0"
     inkscape:window-width="1366"
     inkscape:window-height="705"
     inkscape:window-x="-8"
     inkscape:window-y="-8"
     inkscape:window-maximized="1" />
  <metadata
     id="metadata4577">
    <rdf:RDF>
      <cc:Work
         rdf:about="">
        <dc:format>image/svg+xml</dc:format>
        <dc:type
           rdf:resource="http://purl.org/dc/dcmitype/StillImage" />
        <dc:title></dc:title>
      </cc:Work>
    </rdf:RDF>
  </metadata>
  <g
     inkscape:label="Layer 1"
     inkscape:groupmode="layer"
     id="layer1"
     transform="translate(1465.676,185.8864)">
    <path
       style="fill:url(#linearGradient304);stroke:none"
       d="m -1297.9182,-185.8864 c -21.6525,0 -42.5117,4.07625 -62.5742,12.21876 -18.6725,7.55499 -35.7575,18.27968 -51.25,32.17968 -16.4875,14.7025 -28.7059,28.50406 -36.6484,41.41406 -6.7575,10.93 -10.1329,20.86079 -10.1329,29.80079 0,14.9 2.7788,25.52781 8.3438,31.88281 4.565,5.1675 12.6142,8.83984 24.1367,11.02734 1.5875,0.3975 3.9699,0.59375 7.1524,0.59375 5.96,0 11.7162,-1.58953 17.2812,-4.76953 3.97,-2.1825 9.5361,-6.45108 16.6836,-12.80858 12.315,-10.925 20.163,-17.18344 23.543,-18.77344 1.19,-0.595 2.1854,-0.89454 2.9804,-0.89454 1.985,0 3.3246,1.295 4.0196,3.875 0.6975,2.5825 1.0429,6.15906 1.0429,10.72656 0,1.595 -0.051,3.1286 -0.1484,4.6211 -0.1025,1.49 -0.1484,2.9264 -0.1484,4.3164 l -2.086,99.82422 c 0,2.5825 -0.1018,4.76328 -0.2968,6.55078 -0.7975,7.155 -1.1954,10.83484 -1.1954,11.02734 0,3.18 0.7968,4.86892 2.3868,5.06642 l 36.0586,-7.44922 4.7617,-4.17188 2.3867,-145.41016 c 0,-6.155 0.4448,-10.924685 1.3398,-14.304685 0.895,-3.375 2.4311,-5.359538 4.6211,-5.957037 l 14.2969,-4.175775 c 2.58,-0.597503 3.875,-1.584063 3.875,-2.976563 0,-0.595 -0.1962,-1.4936 -0.5937,-2.6836 -1.59,-0.79 -3.7747,-1.1914 -6.5547,-1.1914 -6.96,0 -16.0916,2.23704 -27.4141,6.707038 -11.3225,4.4675 -24.2383,11.27515 -38.7383,20.410152 -8.1475,5.17 -20.1647,15.0025 -36.0547,29.5 -9.735,8.9375 -18.1756,13.41015 -25.3281,13.41015 -1.5925,-0.195 -2.7817,-0.30078 -3.5742,-0.30078 -7.1525,-0.7925 -12.5149,-4.0225 -16.0899,-9.6875 -3.5775,-5.66 -5.3632,-12.65891 -5.3632,-21.0039 0,-12.51501 3.2745,-23.63751 9.832,-33.375 13.11,-19.66501 29.0991,-34.66078 47.9766,-44.98828 18.87,-10.33 38.7337,-15.5 59.5937,-15.5 37.5425,0 69.6222,12.71703 96.2422,38.14452 30.3925,29.005012 45.5937,68.3386 45.5937,117.9961004 0,13.1125 -1.4887,28.2090596 -4.4687,45.2890596 -2.9825,17.0875 -6.0098,34.12048 -9.0898,51.10548 -3.08,16.985 -4.6211,30.24374 -4.6211,39.78124 0,4.965 0.1951,8.54156 0.5976,10.72656 1.5875,16.09 3.2764,32.17704 5.0664,48.26954 2.1825,8.545 9.2388,17.085 21.1563,25.625 5.76,4.17 13.8028,6.2578 24.1328,6.2578 4.3675,0 9.4317,-0.44734 15.1992,-1.33984 5.7575,-0.8925 11.72,-1.74516 17.875,-2.53516 3.7775,0 6.6061,-0.34656 8.4961,-1.03906 1.8875,-0.695 2.53,-2.13422 1.9375,-4.32422 -8.1475,-5.76 -16.9859,-14.09734 -26.5234,-25.02734 -6.555,-7.345 -13.7032,-16.28782 -21.4532,-26.82032 -9.935,-14.695 -14.8984,-29.89234 -14.8984,-45.58984 0,-11.9175 2.6819,-30.78436 8.0469,-56.60936 1.39,-6.55752 6.352,-28.90688 14.8945,-67.0468796 5.5575,-24.8275004 8.3477,-40.4212604 8.3477,-46.7812604 0,-41.5175 -17.3885,-74.59015 -52.1485,-99.22265 -29.795,-21.0575 -63.9664,-31.58985 -102.5039,-31.58985 z m 42.6133,210.07422 c -2.9775,0.4 -5.565,1.33562 -7.75,2.82812 -2.1875,1.49 -2.9778,3.4275 -2.3828,5.8125 0.1975,1.39 1.1905,2.97814 2.9805,4.76564 1.7875,1.7875 2.6875,3.57578 2.6875,5.36328 0,5.565 -0.7038,9.73562 -2.0938,12.51562 -2.585,4.9675 -8.192,10.08376 -16.832,15.34374 -8.6425,5.265 -22.0042,10.47954 -40.0742,15.64454 -12.3225,3.5725 -27.023,7.15298 -44.1055,10.73046 -13.31,2.78502 -20.2619,4.16798 -20.8594,4.16798 -12.715,3.775 -25.1731,8.98952 -37.3906,15.64454 -12.215,6.65748 -20.6122,12.56546 -25.1797,17.73046 -6.5575,7.3525 -11.4266,14.45218 -14.6016,21.30468 -3.1825,6.855 -4.7695,14.55376 -4.7695,23.09376 0,12.715 4.5161,22.84562 13.5586,30.39062 9.04,7.5525 21.3072,11.32032 36.8047,11.32032 18.665,0 39.6272,-7.7447 62.8672,-23.2422 23.2425,-15.49 39.4278,-31.6764 48.5703,-48.5664 l 0,-4.46876 c -4.57,-3.77248 -7.6483,-11.31952 -9.2383,-22.64452 -0.4,-3.77 -0.6995,-9.13484 -0.8945,-16.08984 -10.9275,1.79 -21.0542,4.07406 -30.3867,6.85156 -3.1825,0.995 -7.06,2.38438 -11.625,4.17188 0,5.9575 -0.2511,13.31578 -0.7461,22.05078 -0.495,8.745 -0.7422,13.70594 -0.7422,14.89844 0,20.0625 -7.7486,35.26234 -23.2461,45.58984 -10.925,7.35 -22.4461,11.02734 -34.5586,11.02734 -11.725,0 -20.9139,-2.93048 -27.5664,-8.79296 -6.66,-5.85502 -9.9844,-13.55736 -9.9844,-23.08986 0,-9.135 3.0808,-18.87452 9.2383,-29.20702 3.975,-6.7475 11.4176,-13.80626 22.3476,-21.15626 11.7175,-7.94 23.8366,-13.40672 36.3516,-16.38672 1.985,0 10.8284,-1.58562 26.5234,-4.76562 20.0625,-3.9725 38.44,-8.6414 55.125,-14.0039 22.245,-6.95 37.9382,-14.30828 47.0782,-22.05078 7.945,-6.56 12.814,-10.72672 14.6015,-12.51172 4.965,-5.1675 7.4492,-10.13484 7.4492,-14.90234 0,-2.58 -0.6984,-4.96236 -2.0859,-7.15236 -1.99,-3.77 -4.7687,-6.7539 -8.3437,-8.9414 -3.575,-2.1825 -7.1491,-3.27344 -10.7266,-3.27344 z"
       id="path312"
       inkscape:connector-curvature="0" />
  </g>
</svg>
