<svg xmlns="http://www.w3.org/2000/svg" xmlns:xlink="http://www.w3.org/1999/xlink" viewBox="0 0 650.06 299.83"><defs><style>.cls-1{mask:url(#mask);}.cls-10,.cls-12,.cls-14,.cls-16,.cls-18,.cls-2,.cls-20,.cls-22,.cls-24,.cls-26,.cls-28,.cls-30,.cls-32,.cls-34,.cls-36,.cls-38,.cls-4,.cls-40,.cls-42,.cls-46,.cls-6,.cls-8{mix-blend-mode:multiply;}.cls-2{fill:url(#radial-gradient);}.cls-3{mask:url(#mask-2);filter:url(#luminosity-noclip-28);}.cls-4{fill:url(#linear-gradient);}.cls-5{mask:url(#mask-3);filter:url(#luminosity-noclip-29);}.cls-6{fill:url(#linear-gradient-2);}.cls-7{mask:url(#mask-4);filter:url(#luminosity-noclip-30);}.cls-8{fill:url(#linear-gradient-3);}.cls-9{mask:url(#mask-5);filter:url(#luminosity-noclip-31);}.cls-10{fill:url(#linear-gradient-4);}.cls-11{mask:url(#mask-6);filter:url(#luminosity-noclip-32);}.cls-12{fill:url(#linear-gradient-5);}.cls-13{mask:url(#mask-8);filter:url(#luminosity-noclip-33);}.cls-14{fill:url(#linear-gradient-6);}.cls-15{mask:url(#mask-9);filter:url(#luminosity-noclip-34);}.cls-16{fill:url(#linear-gradient-7);}.cls-17{mask:url(#mask-10);filter:url(#luminosity-noclip-35);}.cls-18{fill:url(#linear-gradient-8);}.cls-19{mask:url(#mask-11);filter:url(#luminosity-noclip-36);}.cls-20{fill:url(#linear-gradient-9);}.cls-21{mask:url(#mask-12);filter:url(#luminosity-noclip-37);}.cls-22{fill:url(#linear-gradient-10);}.cls-23{mask:url(#mask-13);filter:url(#luminosity-noclip-38);}.cls-24{fill:url(#linear-gradient-11);}.cls-25{mask:url(#mask-14);filter:url(#luminosity-noclip-39);}.cls-26{fill:url(#linear-gradient-12);}.cls-27{mask:url(#mask-15);filter:url(#luminosity-noclip-40);}.cls-28{fill:url(#linear-gradient-13);}.cls-29{mask:url(#mask-16);filter:url(#luminosity-noclip-41);}.cls-30{fill:url(#linear-gradient-14);}.cls-31{mask:url(#mask-17);filter:url(#luminosity-noclip-42);}.cls-32{fill:url(#linear-gradient-15);}.cls-33{mask:url(#mask-18);filter:url(#luminosity-noclip-25);}.cls-34{fill:url(#linear-gradient-16);}.cls-35{mask:url(#mask-19);}.cls-36{fill:url(#radial-gradient-3);}.cls-37{mask:url(#mask-21);filter:url(#luminosity-noclip-44);}.cls-38{fill:url(#linear-gradient-17);}.cls-39{mask:url(#mask-22);filter:url(#luminosity-noclip-26);}.cls-40{fill:url(#linear-gradient-18);}.cls-41{mask:url(#mask-23);filter:url(#luminosity-noclip-27);}.cls-42{fill:url(#linear-gradient-19);}.cls-43{isolation:isolate;}.cls-100,.cls-125,.cls-44,.cls-47{fill:#5e97ff;}.cls-44{opacity:0.76;}.cls-45{opacity:0.54;fill:url(#linear-gradient-20);}.cls-125,.cls-46{opacity:0.39;}.cls-46{fill:url(#linear-gradient-21);}.cls-47{opacity:0.79;}.cls-126,.cls-48,.cls-50,.cls-80,.cls-81,.cls-82,.cls-83,.cls-84,.cls-85,.cls-86,.cls-87,.cls-88{mix-blend-mode:overlay;}.cls-126,.cls-48{opacity:0.52;}.cls-48{fill:url(#linear-gradient-22);}.cls-49{mask:url(#mask-24);}.cls-50{opacity:0.47;}.cls-51{fill:url(#radial-gradient-5);}.cls-52{mask:url(#mask-26);}.cls-53{fill:url(#linear-gradient-23);}.cls-54{mask:url(#mask-27);}.cls-55{fill:url(#linear-gradient-24);}.cls-56{mask:url(#mask-28);}.cls-57{fill:url(#linear-gradient-25);}.cls-58{mask:url(#mask-29);}.cls-59{fill:url(#linear-gradient-26);}.cls-60{mask:url(#mask-30);}.cls-61{fill:url(#linear-gradient-27);}.cls-62{mask:url(#mask-31);}.cls-63{fill:url(#linear-gradient-28);}.cls-64{mask:url(#mask-32);}.cls-65{fill:url(#linear-gradient-29);}.cls-66{mask:url(#mask-33);}.cls-67{fill:url(#linear-gradient-30);}.cls-68{mask:url(#mask-34);}.cls-69{fill:url(#linear-gradient-31);}.cls-70{mask:url(#mask-35);}.cls-71{fill:url(#linear-gradient-32);}.cls-72{mask:url(#mask-36);}.cls-73{fill:url(#linear-gradient-33);}.cls-74{mask:url(#mask-37);}.cls-75{fill:url(#linear-gradient-34);}.cls-76{mask:url(#mask-38);}.cls-77{fill:url(#linear-gradient-35);}.cls-78{mask:url(#mask-39);}.cls-79{fill:url(#linear-gradient-36);}.cls-80{fill:url(#linear-gradient-37);}.cls-81{fill:url(#linear-gradient-38);}.cls-82{fill:url(#linear-gradient-39);}.cls-83{fill:url(#linear-gradient-40);}.cls-84{fill:url(#linear-gradient-41);}.cls-85{fill:url(#linear-gradient-42);}.cls-86{fill:url(#linear-gradient-43);}.cls-87{fill:url(#linear-gradient-44);}.cls-88{fill:url(#linear-gradient-45);}.cls-89{fill:url(#linear-gradient-46);}.cls-90{mask:url(#mask-40);}.cls-91{fill:url(#linear-gradient-47);}.cls-92{fill:url(#linear-gradient-48);}.cls-93{mask:url(#mask-41);}.cls-128,.cls-94,.cls-96,.cls-98{opacity:0.68;}.cls-94{fill:url(#linear-gradient-49);}.cls-95{mask:url(#mask-42);}.cls-96{fill:url(#linear-gradient-50);}.cls-97{mask:url(#mask-43);}.cls-98{fill:url(#linear-gradient-51);}.cls-99{fill:url(#linear-gradient-52);}.cls-100{opacity:0.25;}.cls-101{fill:#64c4ff;opacity:0.27;}.cls-102{mask:url(#mask-44);}.cls-103{fill:url(#radial-gradient-6);}.cls-104{fill:#ffc952;}.cls-105{opacity:0.32;}.cls-106{fill:url(#linear-gradient-53);}.cls-107{fill:url(#linear-gradient-54);}.cls-108{fill:url(#linear-gradient-55);}.cls-109{fill:url(#linear-gradient-56);}.cls-110{fill:url(#linear-gradient-57);}.cls-111{fill:url(#linear-gradient-58);}.cls-112{fill:url(#linear-gradient-59);}.cls-113{fill:url(#linear-gradient-60);}.cls-114{fill:url(#linear-gradient-61);}.cls-115{fill:url(#linear-gradient-62);}.cls-116{fill:url(#linear-gradient-63);}.cls-117{fill:url(#linear-gradient-64);}.cls-118{fill:url(#linear-gradient-65);}.cls-119{fill:url(#linear-gradient-66);}.cls-120{fill:url(#linear-gradient-67);}.cls-121{fill:url(#linear-gradient-68);}.cls-122{fill:url(#linear-gradient-69);}.cls-123{fill:url(#linear-gradient-70);}.cls-124{fill:url(#linear-gradient-71);}.cls-126{fill:url(#radial-gradient-7);}.cls-127{mask:url(#mask-46);}.cls-128{fill:url(#linear-gradient-72);}.cls-129{opacity:0.46;}.cls-130{fill:url(#linear-gradient-73);}.cls-131{fill:url(#linear-gradient-74);}.cls-132{fill:url(#linear-gradient-75);}.cls-133{fill:url(#linear-gradient-76);}.cls-134{fill:url(#linear-gradient-77);}.cls-135{fill:url(#linear-gradient-78);}.cls-136{fill:url(#linear-gradient-79);}.cls-137{fill:#1f6aff;}.cls-138{fill:url(#linear-gradient-80);}.cls-139{fill:#d164ff;}.cls-140{filter:url(#luminosity-noclip-23);}.cls-141{filter:url(#luminosity-noclip-22);}.cls-142{filter:url(#luminosity-noclip-21);}.cls-143{filter:url(#luminosity-noclip-19);}.cls-144{filter:url(#luminosity-noclip-18);}.cls-145{filter:url(#luminosity-noclip-17);}.cls-146{filter:url(#luminosity-noclip-16);}.cls-147{filter:url(#luminosity-noclip-15);}.cls-148{filter:url(#luminosity-noclip-14);}.cls-149{filter:url(#luminosity-noclip-13);}.cls-150{filter:url(#luminosity-noclip-12);}.cls-151{filter:url(#luminosity-noclip-11);}.cls-152{filter:url(#luminosity-noclip-10);}.cls-153{filter:url(#luminosity-noclip-9);}.cls-154{filter:url(#luminosity-noclip-8);}.cls-155{filter:url(#luminosity-noclip-6);}.cls-156{filter:url(#luminosity-noclip-5);}.cls-157{filter:url(#luminosity-noclip-4);}.cls-158{filter:url(#luminosity-noclip-3);}.cls-159{filter:url(#luminosity-noclip-2);}.cls-160{filter:url(#luminosity-noclip);}</style><filter id="luminosity-noclip" x="363.01" y="-8019.38" width="100.35" height="32766" filterUnits="userSpaceOnUse" color-interpolation-filters="sRGB"><feFlood flood-color="#fff" result="bg"/><feBlend in="SourceGraphic" in2="bg"/></filter><mask id="mask" x="363.01" y="-8019.38" width="100.35" height="32766" maskUnits="userSpaceOnUse"><g class="cls-160"/></mask><radialGradient id="radial-gradient" cx="-326.18" cy="171.28" r="50.18" gradientTransform="translate(739.36)" gradientUnits="userSpaceOnUse"><stop offset="0" stop-color="#fff"/><stop offset="1"/></radialGradient><filter id="luminosity-noclip-2" x="445.2" y="-8019.38" width="2.92" height="32766" filterUnits="userSpaceOnUse" color-interpolation-filters="sRGB"><feFlood flood-color="#fff" result="bg"/><feBlend in="SourceGraphic" in2="bg"/></filter><mask id="mask-2" x="445.2" y="-8019.38" width="2.92" height="32766" maskUnits="userSpaceOnUse"><g class="cls-159"/></mask><linearGradient id="linear-gradient" x1="445.38" y1="117.58" x2="448.12" y2="117.58" gradientUnits="userSpaceOnUse"><stop offset="0" stop-color="#fff"/><stop offset="1" stop-color="gray"/></linearGradient><filter id="luminosity-noclip-3" x="437.67" y="-8019.38" width="5.29" height="32766" filterUnits="userSpaceOnUse" color-interpolation-filters="sRGB"><feFlood flood-color="#fff" result="bg"/><feBlend in="SourceGraphic" in2="bg"/></filter><mask id="mask-3" x="437.67" y="-8019.38" width="5.29" height="32766" maskUnits="userSpaceOnUse"><g class="cls-158"/></mask><linearGradient id="linear-gradient-2" x1="438" y1="126.4" x2="442.95" y2="126.4" xlink:href="#linear-gradient"/><filter id="luminosity-noclip-4" x="444.17" y="-8019.38" width="2.06" height="32766" filterUnits="userSpaceOnUse" color-interpolation-filters="sRGB"><feFlood flood-color="#fff" result="bg"/><feBlend in="SourceGraphic" in2="bg"/></filter><mask id="mask-4" x="444.17" y="-8019.38" width="2.06" height="32766" maskUnits="userSpaceOnUse"><g class="cls-157"/></mask><linearGradient id="linear-gradient-3" x1="444.29" y1="131.15" x2="446.22" y2="131.15" xlink:href="#linear-gradient"/><filter id="luminosity-noclip-5" x="441.17" y="-8019.38" width="3.17" height="32766" filterUnits="userSpaceOnUse" color-interpolation-filters="sRGB"><feFlood flood-color="#fff" result="bg"/><feBlend in="SourceGraphic" in2="bg"/></filter><mask id="mask-5" x="441.17" y="-8019.38" width="3.17" height="32766" maskUnits="userSpaceOnUse"><g class="cls-156"/></mask><linearGradient id="linear-gradient-4" x1="441.36" y1="137.02" x2="444.33" y2="137.02" xlink:href="#linear-gradient"/><filter id="luminosity-noclip-6" x="444.67" y="-8019.38" width="3.29" height="32766" filterUnits="userSpaceOnUse" color-interpolation-filters="sRGB"><feFlood flood-color="#fff" result="bg"/><feBlend in="SourceGraphic" in2="bg"/></filter><mask id="mask-6" x="444.67" y="-8019.38" width="3.29" height="32766" maskUnits="userSpaceOnUse"><g class="cls-155"/></mask><linearGradient id="linear-gradient-5" x1="444.87" y1="145.25" x2="447.95" y2="145.25" xlink:href="#linear-gradient"/><filter id="luminosity-noclip-8" x="438.44" y="-8019.38" width="4.19" height="32766" filterUnits="userSpaceOnUse" color-interpolation-filters="sRGB"><feFlood flood-color="#fff" result="bg"/><feBlend in="SourceGraphic" in2="bg"/></filter><mask id="mask-8" x="438.44" y="-8019.38" width="4.19" height="32766" maskUnits="userSpaceOnUse"><g class="cls-154"/></mask><linearGradient id="linear-gradient-6" x1="438.7" y1="152.44" x2="442.62" y2="152.44" xlink:href="#linear-gradient"/><filter id="luminosity-noclip-9" x="443.92" y="-8019.38" width="6.49" height="32766" filterUnits="userSpaceOnUse" color-interpolation-filters="sRGB"><feFlood flood-color="#fff" result="bg"/><feBlend in="SourceGraphic" in2="bg"/></filter><mask id="mask-9" x="443.92" y="-8019.38" width="6.49" height="32766" maskUnits="userSpaceOnUse"><g class="cls-153"/></mask><linearGradient id="linear-gradient-7" x1="444.32" y1="158.02" x2="450.4" y2="158.02" xlink:href="#linear-gradient"/><filter id="luminosity-noclip-10" x="442.33" y="-8019.38" width="2.67" height="32766" filterUnits="userSpaceOnUse" color-interpolation-filters="sRGB"><feFlood flood-color="#fff" result="bg"/><feBlend in="SourceGraphic" in2="bg"/></filter><mask id="mask-10" x="442.33" y="-8019.38" width="2.67" height="32766" maskUnits="userSpaceOnUse"><g class="cls-152"/></mask><linearGradient id="linear-gradient-8" x1="442.5" y1="161.37" x2="445" y2="161.37" xlink:href="#linear-gradient"/><filter id="luminosity-noclip-11" x="438.44" y="-8019.38" width="5.48" height="32766" filterUnits="userSpaceOnUse" color-interpolation-filters="sRGB"><feFlood flood-color="#fff" result="bg"/><feBlend in="SourceGraphic" in2="bg"/></filter><mask id="mask-11" x="438.44" y="-8019.38" width="5.48" height="32766" maskUnits="userSpaceOnUse"><g class="cls-151"/></mask><linearGradient id="linear-gradient-9" x1="438.78" y1="170.62" x2="443.91" y2="170.62" xlink:href="#linear-gradient"/><filter id="luminosity-noclip-12" x="442.12" y="-8019.38" width="5.04" height="32766" filterUnits="userSpaceOnUse" color-interpolation-filters="sRGB"><feFlood flood-color="#fff" result="bg"/><feBlend in="SourceGraphic" in2="bg"/></filter><mask id="mask-12" x="442.12" y="-8019.38" width="5.04" height="32766" maskUnits="userSpaceOnUse"><g class="cls-150"/></mask><linearGradient id="linear-gradient-10" x1="442.44" y1="175.3" x2="447.16" y2="175.3" xlink:href="#linear-gradient"/><filter id="luminosity-noclip-13" x="440.04" y="-8019.38" width="3.62" height="32766" filterUnits="userSpaceOnUse" color-interpolation-filters="sRGB"><feFlood flood-color="#fff" result="bg"/><feBlend in="SourceGraphic" in2="bg"/></filter><mask id="mask-13" x="440.04" y="-8019.38" width="3.62" height="32766" maskUnits="userSpaceOnUse"><g class="cls-149"/></mask><linearGradient id="linear-gradient-11" x1="440.27" y1="186.51" x2="443.66" y2="186.51" xlink:href="#linear-gradient"/><filter id="luminosity-noclip-14" x="438.78" y="-8019.38" width="12.99" height="32766" filterUnits="userSpaceOnUse" color-interpolation-filters="sRGB"><feFlood flood-color="#fff" result="bg"/><feBlend in="SourceGraphic" in2="bg"/></filter><mask id="mask-14" x="438.78" y="-8019.38" width="12.99" height="32766" maskUnits="userSpaceOnUse"><g class="cls-148"/></mask><linearGradient id="linear-gradient-12" x1="438.78" y1="100.47" x2="451.77" y2="100.47" xlink:href="#linear-gradient"/><filter id="luminosity-noclip-15" x="440.31" y="-8019.38" width="3.44" height="32766" filterUnits="userSpaceOnUse" color-interpolation-filters="sRGB"><feFlood flood-color="#fff" result="bg"/><feBlend in="SourceGraphic" in2="bg"/></filter><mask id="mask-15" x="440.31" y="-8019.38" width="3.44" height="32766" maskUnits="userSpaceOnUse"><g class="cls-147"/></mask><linearGradient id="linear-gradient-13" x1="440.53" y1="102.55" x2="443.75" y2="102.55" gradientUnits="userSpaceOnUse"><stop offset="0" stop-color="#fff"/><stop offset="1" stop-color="#4d4d4d"/></linearGradient><filter id="luminosity-noclip-16" x="444.87" y="-8019.38" width="3.94" height="32766" filterUnits="userSpaceOnUse" color-interpolation-filters="sRGB"><feFlood flood-color="#fff" result="bg"/><feBlend in="SourceGraphic" in2="bg"/></filter><mask id="mask-16" x="444.87" y="-8019.38" width="3.94" height="32766" maskUnits="userSpaceOnUse"><g class="cls-146"/></mask><linearGradient id="linear-gradient-14" x1="445.12" y1="103.13" x2="448.81" y2="103.13" xlink:href="#linear-gradient-13"/><filter id="luminosity-noclip-17" x="450.41" y="-8019.38" width="0.97" height="32766" filterUnits="userSpaceOnUse" color-interpolation-filters="sRGB"><feFlood flood-color="#fff" result="bg"/><feBlend in="SourceGraphic" in2="bg"/></filter><mask id="mask-17" x="450.41" y="-8019.38" width="0.97" height="32766" maskUnits="userSpaceOnUse"><g class="cls-145"/></mask><linearGradient id="linear-gradient-15" x1="450.47" y1="103.64" x2="451.37" y2="103.64" xlink:href="#linear-gradient-13"/><filter id="luminosity-noclip-18" x="437.67" y="-8019.38" width="4.46" height="32766" filterUnits="userSpaceOnUse" color-interpolation-filters="sRGB"><feFlood flood-color="#fff" result="bg"/><feBlend in="SourceGraphic" in2="bg"/></filter><mask id="mask-18" x="437.67" y="-8019.38" width="4.46" height="32766" maskUnits="userSpaceOnUse"><g class="cls-144"/></mask><linearGradient id="linear-gradient-16" x1="437.94" y1="107.06" x2="442.12" y2="107.06" xlink:href="#linear-gradient"/><filter id="luminosity-noclip-19" x="487.57" y="-8019.38" width="100.73" height="32766" filterUnits="userSpaceOnUse" color-interpolation-filters="sRGB"><feFlood flood-color="#fff" result="bg"/><feBlend in="SourceGraphic" in2="bg"/></filter><mask id="mask-19" x="487.57" y="-8019.38" width="100.73" height="32766" maskUnits="userSpaceOnUse"><g class="cls-143"/></mask><radialGradient id="radial-gradient-3" cx="-201.43" cy="228.29" r="50.36" gradientTransform="translate(795.75 390.23) rotate(80.71)" xlink:href="#radial-gradient"/><filter id="luminosity-noclip-21" x="354.82" y="-8019.38" width="36.07" height="32766" filterUnits="userSpaceOnUse" color-interpolation-filters="sRGB"><feFlood flood-color="#fff" result="bg"/><feBlend in="SourceGraphic" in2="bg"/></filter><mask id="mask-21" x="354.82" y="-8019.38" width="36.07" height="32766" maskUnits="userSpaceOnUse"><g class="cls-142"/></mask><linearGradient id="linear-gradient-17" x1="354.82" y1="103.73" x2="390.89" y2="103.73" gradientUnits="userSpaceOnUse"><stop offset="0" stop-color="#676767"/><stop offset="1" stop-color="#4d4d4d"/></linearGradient><filter id="luminosity-noclip-22" x="443.28" y="-8019.38" width="3.84" height="32766" filterUnits="userSpaceOnUse" color-interpolation-filters="sRGB"><feFlood flood-color="#fff" result="bg"/><feBlend in="SourceGraphic" in2="bg"/></filter><mask id="mask-22" x="443.28" y="-8019.38" width="3.84" height="32766" maskUnits="userSpaceOnUse"><g class="cls-141"/></mask><linearGradient id="linear-gradient-18" x1="443.52" y1="111.81" x2="447.12" y2="111.81" xlink:href="#linear-gradient"/><filter id="luminosity-noclip-23" x="437.67" y="-8019.38" width="2.23" height="32766" filterUnits="userSpaceOnUse" color-interpolation-filters="sRGB"><feFlood flood-color="#fff" result="bg"/><feBlend in="SourceGraphic" in2="bg"/></filter><mask id="mask-23" x="437.67" y="-8019.38" width="2.23" height="32766" maskUnits="userSpaceOnUse"><g class="cls-140"/></mask><linearGradient id="linear-gradient-19" x1="437.81" y1="118.99" x2="439.89" y2="118.99" xlink:href="#linear-gradient"/><linearGradient id="linear-gradient-20" x1="447.41" y1="187.3" x2="447.41" y2="119.07" gradientUnits="userSpaceOnUse"><stop offset="0" stop-color="#1a0035"/><stop offset="0.29" stop-color="#351659"/><stop offset="0.93" stop-color="#794fb3"/><stop offset="1" stop-color="#8155bd"/></linearGradient><linearGradient id="linear-gradient-21" x1="452.77" y1="188.82" x2="452.77" y2="120.59" gradientUnits="userSpaceOnUse"><stop offset="0.01" stop-color="#8195cf"/><stop offset="0.07" stop-color="#7c8fcc"/><stop offset="0.7" stop-color="#4e50af"/><stop offset="1" stop-color="#3c37a3"/></linearGradient><linearGradient id="linear-gradient-22" x1="421.22" y1="150.46" x2="435.5" y2="150.46" gradientUnits="userSpaceOnUse"><stop offset="0" stop-color="#fffacc"/><stop offset="0.86" stop-color="#fffacc"/><stop offset="1" stop-color="#fffacc"/></linearGradient><mask id="mask-24" x="363.01" y="121.1" width="100.35" height="100.35" maskUnits="userSpaceOnUse"><g class="cls-1"><circle class="cls-2" cx="413.18" cy="171.28" r="50.18"/></g></mask><filter id="luminosity-noclip-24" x="363.01" y="121.1" width="100.35" height="100.35" filterUnits="userSpaceOnUse" color-interpolation-filters="sRGB"><feFlood flood-color="#fff" result="bg"/><feBlend in="SourceGraphic" in2="bg"/></filter><radialGradient id="radial-gradient-5" cx="-326.18" cy="171.28" r="50.18" gradientTransform="translate(739.36)" gradientUnits="userSpaceOnUse"><stop offset="0" stop-color="#ffcaab"/><stop offset="1" stop-color="#ff73dd"/></radialGradient><filter id="luminosity-noclip-25" x="437.67" y="106.44" width="4.46" height="1.25" filterUnits="userSpaceOnUse" color-interpolation-filters="sRGB"><feFlood flood-color="#fff" result="bg"/><feBlend in="SourceGraphic" in2="bg"/></filter><mask id="mask-26" x="437.67" y="106.44" width="4.46" height="1.25" maskUnits="userSpaceOnUse"><g class="cls-33"><polygon class="cls-34" points="442.13 107.69 437.67 107.17 437.67 106.44 442.13 106.97 442.13 107.69"/></g></mask><linearGradient id="linear-gradient-23" x1="437.94" y1="107.06" x2="442.12" y2="107.06" gradientUnits="userSpaceOnUse"><stop offset="0" stop-color="#d995ff"/><stop offset="1" stop-color="#a43bff"/></linearGradient><filter id="luminosity-noclip-26" x="443.28" y="110.98" width="3.84" height="1.66" filterUnits="userSpaceOnUse" color-interpolation-filters="sRGB"><feFlood flood-color="#fff" result="bg"/><feBlend in="SourceGraphic" in2="bg"/></filter><mask id="mask-27" x="443.28" y="110.98" width="3.84" height="1.66" maskUnits="userSpaceOnUse"><g class="cls-39"><polygon class="cls-40" points="447.13 111.39 443.28 110.98 443.28 112.23 447.13 112.64 447.13 111.39"/></g></mask><linearGradient id="linear-gradient-24" x1="443.52" y1="111.81" x2="447.12" y2="111.81" xlink:href="#linear-gradient-23"/><filter id="luminosity-noclip-27" x="437.67" y="118.26" width="2.23" height="1.46" filterUnits="userSpaceOnUse" color-interpolation-filters="sRGB"><feFlood flood-color="#fff" result="bg"/><feBlend in="SourceGraphic" in2="bg"/></filter><mask id="mask-28" x="437.67" y="118.26" width="2.23" height="1.46" maskUnits="userSpaceOnUse"><g class="cls-41"><polygon class="cls-42" points="437.67 119.54 439.9 119.73 439.9 118.45 437.67 118.26 437.67 119.54"/></g></mask><linearGradient id="linear-gradient-25" x1="437.81" y1="118.99" x2="439.89" y2="118.99" xlink:href="#linear-gradient-23"/><filter id="luminosity-noclip-28" x="445.2" y="117.04" width="2.92" height="1.07" filterUnits="userSpaceOnUse" color-interpolation-filters="sRGB"><feFlood flood-color="#fff" result="bg"/><feBlend in="SourceGraphic" in2="bg"/></filter><mask id="mask-29" x="445.2" y="117.04" width="2.92" height="1.07" maskUnits="userSpaceOnUse"><g class="cls-3"><polygon class="cls-4" points="448.13 118.12 445.2 117.86 445.2 117.04 448.13 117.31 448.13 118.12"/></g></mask><linearGradient id="linear-gradient-26" x1="445.38" y1="117.58" x2="448.12" y2="117.58" xlink:href="#linear-gradient-23"/><filter id="luminosity-noclip-29" x="437.67" y="125.79" width="5.29" height="1.21" filterUnits="userSpaceOnUse" color-interpolation-filters="sRGB"><feFlood flood-color="#fff" result="bg"/><feBlend in="SourceGraphic" in2="bg"/></filter><mask id="mask-30" x="437.67" y="125.79" width="5.29" height="1.21" maskUnits="userSpaceOnUse"><g class="cls-5"><polygon class="cls-6" points="437.67 126.67 442.96 127.01 442.96 126.14 437.67 125.79 437.67 126.67"/></g></mask><linearGradient id="linear-gradient-27" x1="438" y1="126.4" x2="442.95" y2="126.4" xlink:href="#linear-gradient-23"/><filter id="luminosity-noclip-30" x="444.17" y="130.59" width="2.06" height="1.11" filterUnits="userSpaceOnUse" color-interpolation-filters="sRGB"><feFlood flood-color="#fff" result="bg"/><feBlend in="SourceGraphic" in2="bg"/></filter><mask id="mask-31" x="444.17" y="130.59" width="2.06" height="1.11" maskUnits="userSpaceOnUse"><g class="cls-7"><polygon class="cls-8" points="446.22 131.7 444.17 131.6 444.17 130.59 446.22 130.7 446.22 131.7"/></g></mask><linearGradient id="linear-gradient-28" x1="444.29" y1="131.15" x2="446.22" y2="131.15" xlink:href="#linear-gradient-23"/><filter id="luminosity-noclip-31" x="441.17" y="136.29" width="3.17" height="1.46" filterUnits="userSpaceOnUse" color-interpolation-filters="sRGB"><feFlood flood-color="#fff" result="bg"/><feBlend in="SourceGraphic" in2="bg"/></filter><mask id="mask-32" x="441.17" y="136.29" width="3.17" height="1.46" maskUnits="userSpaceOnUse"><g class="cls-9"><polygon class="cls-10" points="441.17 137.64 444.33 137.75 444.33 136.41 441.17 136.29 441.17 137.64"/></g></mask><linearGradient id="linear-gradient-29" x1="441.36" y1="137.02" x2="444.33" y2="137.02" xlink:href="#linear-gradient-23"/><filter id="luminosity-noclip-32" x="444.67" y="145.02" width="3.29" height="0.45" filterUnits="userSpaceOnUse" color-interpolation-filters="sRGB"><feFlood flood-color="#fff" result="bg"/><feBlend in="SourceGraphic" in2="bg"/></filter><mask id="mask-33" x="444.67" y="145.02" width="3.29" height="0.45" maskUnits="userSpaceOnUse"><g class="cls-11"><polygon class="cls-12" points="447.96 145.47 444.67 145.43 444.67 145.02 447.96 145.07 447.96 145.47"/></g></mask><linearGradient id="linear-gradient-30" x1="444.87" y1="145.25" x2="447.95" y2="145.25" xlink:href="#linear-gradient-23"/><filter id="luminosity-noclip-33" x="438.44" y="152.08" width="4.19" height="0.71" filterUnits="userSpaceOnUse" color-interpolation-filters="sRGB"><feFlood flood-color="#fff" result="bg"/><feBlend in="SourceGraphic" in2="bg"/></filter><mask id="mask-34" x="438.44" y="152.08" width="4.19" height="0.71" maskUnits="userSpaceOnUse"><g class="cls-13"><polygon class="cls-14" points="438.44 152.79 442.63 152.76 442.63 152.08 438.44 152.11 438.44 152.79"/></g></mask><linearGradient id="linear-gradient-31" x1="438.7" y1="152.44" x2="442.62" y2="152.44" xlink:href="#linear-gradient-23"/><filter id="luminosity-noclip-34" x="443.92" y="157.3" width="6.49" height="1.43" filterUnits="userSpaceOnUse" color-interpolation-filters="sRGB"><feFlood flood-color="#fff" result="bg"/><feBlend in="SourceGraphic" in2="bg"/></filter><mask id="mask-35" x="443.92" y="157.3" width="6.49" height="1.43" maskUnits="userSpaceOnUse"><g class="cls-15"><polygon class="cls-16" points="450.41 157.31 443.92 157.44 443.92 158.74 450.41 158.58 450.41 157.31"/></g></mask><linearGradient id="linear-gradient-32" x1="444.32" y1="158.02" x2="450.4" y2="158.02" xlink:href="#linear-gradient-23"/><filter id="luminosity-noclip-35" x="442.33" y="160.9" width="2.67" height="0.93" filterUnits="userSpaceOnUse" color-interpolation-filters="sRGB"><feFlood flood-color="#fff" result="bg"/><feBlend in="SourceGraphic" in2="bg"/></filter><mask id="mask-36" x="442.33" y="160.9" width="2.67" height="0.93" maskUnits="userSpaceOnUse"><g class="cls-17"><polygon class="cls-18" points="442.33 161.83 445 161.75 445 160.9 442.33 160.99 442.33 161.83"/></g></mask><linearGradient id="linear-gradient-33" x1="442.5" y1="161.37" x2="445" y2="161.37" xlink:href="#linear-gradient-23"/><filter id="luminosity-noclip-36" x="438.44" y="169.88" width="5.48" height="1.49" filterUnits="userSpaceOnUse" color-interpolation-filters="sRGB"><feFlood flood-color="#fff" result="bg"/><feBlend in="SourceGraphic" in2="bg"/></filter><mask id="mask-37" x="438.44" y="169.88" width="5.48" height="1.49" maskUnits="userSpaceOnUse"><g class="cls-19"><polygon class="cls-20" points="443.92 171.04 438.44 171.36 438.44 170.18 443.92 169.88 443.92 171.04"/></g></mask><linearGradient id="linear-gradient-34" x1="438.78" y1="170.62" x2="443.91" y2="170.62" xlink:href="#linear-gradient-23"/><filter id="luminosity-noclip-37" x="442.12" y="174.55" width="5.04" height="1.5" filterUnits="userSpaceOnUse" color-interpolation-filters="sRGB"><feFlood flood-color="#fff" result="bg"/><feBlend in="SourceGraphic" in2="bg"/></filter><mask id="mask-38" x="442.12" y="174.55" width="5.04" height="1.5" maskUnits="userSpaceOnUse"><g class="cls-21"><polygon class="cls-22" points="447.16 175.68 442.13 176.04 442.13 174.89 447.16 174.55 447.16 175.68"/></g></mask><linearGradient id="linear-gradient-35" x1="442.44" y1="175.3" x2="447.16" y2="175.3" xlink:href="#linear-gradient-23"/><filter id="luminosity-noclip-38" x="440.04" y="185.7" width="3.62" height="1.64" filterUnits="userSpaceOnUse" color-interpolation-filters="sRGB"><feFlood flood-color="#fff" result="bg"/><feBlend in="SourceGraphic" in2="bg"/></filter><mask id="mask-39" x="440.04" y="185.7" width="3.62" height="1.64" maskUnits="userSpaceOnUse"><g class="cls-23"><polygon class="cls-24" points="440.04 187.33 443.67 186.96 443.67 185.69 440.04 186.05 440.04 187.33"/></g></mask><linearGradient id="linear-gradient-36" x1="440.27" y1="186.51" x2="443.66" y2="186.51" xlink:href="#linear-gradient-23"/><linearGradient id="linear-gradient-37" x1="431.19" y1="109.12" x2="434.31" y2="109.12" xlink:href="#linear-gradient-22"/><linearGradient id="linear-gradient-38" x1="426.5" y1="114.92" x2="430.5" y2="114.92" xlink:href="#linear-gradient-22"/><linearGradient id="linear-gradient-39" x1="431.44" y1="119.72" x2="433.19" y2="119.72" xlink:href="#linear-gradient-22"/><linearGradient id="linear-gradient-40" x1="428.94" y1="121.99" x2="431.44" y2="121.99" xlink:href="#linear-gradient-22"/><linearGradient id="linear-gradient-41" x1="427.25" y1="131.5" x2="429.37" y2="131.5" xlink:href="#linear-gradient-22"/><linearGradient id="linear-gradient-42" x1="430.5" y1="138.36" x2="432.56" y2="138.36" xlink:href="#linear-gradient-22"/><linearGradient id="linear-gradient-43" x1="428.36" y1="144.68" x2="432.87" y2="144.68" xlink:href="#linear-gradient-22"/><linearGradient id="linear-gradient-44" x1="424.56" y1="152.3" x2="428.31" y2="152.3" xlink:href="#linear-gradient-22"/><linearGradient id="linear-gradient-45" x1="430" y1="163.34" x2="432.87" y2="163.34" xlink:href="#linear-gradient-22"/><linearGradient id="linear-gradient-46" x1="438.78" y1="102.8" x2="451.77" y2="102.8" gradientUnits="userSpaceOnUse"><stop offset="0" stop-color="#3a1a5f"/><stop offset="1" stop-color="#512d7e"/></linearGradient><filter id="luminosity-noclip-39" x="438.78" y="99.28" width="12.99" height="2.39" filterUnits="userSpaceOnUse" color-interpolation-filters="sRGB"><feFlood flood-color="#fff" result="bg"/><feBlend in="SourceGraphic" in2="bg"/></filter><mask id="mask-40" x="438.78" y="99.28" width="12.99" height="2.39" maskUnits="userSpaceOnUse"><g class="cls-25"><polygon class="cls-26" points="451.77 101.05 438.78 99.28 438.78 99.9 451.77 101.67 451.77 101.05"/></g></mask><linearGradient id="linear-gradient-47" x1="438.78" y1="100.47" x2="451.77" y2="100.47" xlink:href="#linear-gradient-23"/><linearGradient id="linear-gradient-48" x1="426.44" y1="100.13" x2="438.78" y2="100.13" xlink:href="#linear-gradient-22"/><filter id="luminosity-noclip-40" x="440.31" y="101.15" width="3.44" height="2.8" filterUnits="userSpaceOnUse" color-interpolation-filters="sRGB"><feFlood flood-color="#fff" result="bg"/><feBlend in="SourceGraphic" in2="bg"/></filter><mask id="mask-41" x="440.31" y="101.15" width="3.44" height="2.8" maskUnits="userSpaceOnUse"><g class="cls-27"><polygon class="cls-28" points="443.75 103.94 440.31 103.51 440.31 101.15 443.75 101.61 443.75 103.94"/></g></mask><linearGradient id="linear-gradient-49" x1="440.53" y1="102.55" x2="443.75" y2="102.55" xlink:href="#linear-gradient-23"/><filter id="luminosity-noclip-41" x="444.87" y="101.7" width="3.94" height="2.86" filterUnits="userSpaceOnUse" color-interpolation-filters="sRGB"><feFlood flood-color="#fff" result="bg"/><feBlend in="SourceGraphic" in2="bg"/></filter><mask id="mask-42" x="444.87" y="101.7" width="3.94" height="2.86" maskUnits="userSpaceOnUse"><g class="cls-29"><polygon class="cls-30" points="448.81 104.56 444.88 104.06 444.88 101.7 448.81 102.23 448.81 104.56"/></g></mask><linearGradient id="linear-gradient-50" x1="445.12" y1="103.13" x2="448.81" y2="103.13" xlink:href="#linear-gradient-23"/><filter id="luminosity-noclip-42" x="450.41" y="102.43" width="0.97" height="2.43" filterUnits="userSpaceOnUse" color-interpolation-filters="sRGB"><feFlood flood-color="#fff" result="bg"/><feBlend in="SourceGraphic" in2="bg"/></filter><mask id="mask-43" x="450.41" y="102.43" width="0.97" height="2.43" maskUnits="userSpaceOnUse"><g class="cls-31"><polygon class="cls-32" points="451.38 104.86 450.41 104.74 450.41 102.43 451.38 102.56 451.38 104.86"/></g></mask><linearGradient id="linear-gradient-51" x1="450.47" y1="103.64" x2="451.37" y2="103.64" xlink:href="#linear-gradient-23"/><linearGradient id="linear-gradient-52" x1="541.59" y1="220.58" x2="541.59" y2="121.2" gradientUnits="userSpaceOnUse"><stop offset="0" stop-color="#1a0035"/><stop offset="0.2" stop-color="#351659"/><stop offset="0.65" stop-color="#794fb3"/><stop offset="1" stop-color="#b27efe"/></linearGradient><mask id="mask-44" x="487.57" y="177.93" width="100.73" height="100.73" maskUnits="userSpaceOnUse"><g class="cls-35"><circle class="cls-36" cx="537.93" cy="228.29" r="50.36" transform="translate(225.79 722.31) rotate(-80.71)"/></g></mask><filter id="luminosity-noclip-43" x="487.57" y="177.93" width="100.73" height="100.73" filterUnits="userSpaceOnUse" color-interpolation-filters="sRGB"><feFlood flood-color="#fff" result="bg"/><feBlend in="SourceGraphic" in2="bg"/></filter><radialGradient id="radial-gradient-6" cx="-201.43" cy="228.29" r="50.36" gradientTransform="translate(795.75 390.23) rotate(80.71)" gradientUnits="userSpaceOnUse"><stop offset="0" stop-color="#d1d4be"/><stop offset="1" stop-color="#6973dd"/></radialGradient><linearGradient id="linear-gradient-53" x1="541.61" y1="104.96" x2="541.61" y2="102.18" gradientUnits="userSpaceOnUse"><stop offset="0" stop-color="#1a0035"/><stop offset="0.5" stop-color="#2d1059"/><stop offset="1" stop-color="#432281"/></linearGradient><linearGradient id="linear-gradient-54" x1="541.59" y1="108.81" x2="541.59" y2="106.15" xlink:href="#linear-gradient-53"/><linearGradient id="linear-gradient-55" x1="541.59" y1="112.56" x2="541.59" y2="110.16" xlink:href="#linear-gradient-53"/><linearGradient id="linear-gradient-56" x1="541.59" y1="116.41" x2="541.59" y2="114.31" xlink:href="#linear-gradient-53"/><linearGradient id="linear-gradient-57" x1="541.61" y1="120.48" x2="541.61" y2="118.53" xlink:href="#linear-gradient-53"/><linearGradient id="linear-gradient-58" x1="541.61" y1="124.77" x2="541.61" y2="123.08" xlink:href="#linear-gradient-53"/><linearGradient id="linear-gradient-59" x1="541.59" y1="128.86" x2="541.59" y2="127.42" xlink:href="#linear-gradient-53"/><linearGradient id="linear-gradient-60" x1="541.59" y1="132.71" x2="541.59" y2="131.34" xlink:href="#linear-gradient-53"/><linearGradient id="linear-gradient-61" x1="541.61" y1="137.53" x2="541.61" y2="136.43" xlink:href="#linear-gradient-53"/><linearGradient id="linear-gradient-62" x1="541.59" y1="142.38" x2="541.59" y2="141.6" xlink:href="#linear-gradient-53"/><linearGradient id="linear-gradient-63" x1="541.61" y1="146.48" x2="541.61" y2="146.06" xlink:href="#linear-gradient-53"/><linearGradient id="linear-gradient-64" x1="541.61" y1="151.63" x2="541.61" y2="151.18" xlink:href="#linear-gradient-53"/><linearGradient id="linear-gradient-65" x1="541.61" y1="156.99" x2="541.61" y2="156.31" xlink:href="#linear-gradient-53"/><linearGradient id="linear-gradient-66" x1="541.61" y1="161.87" x2="541.61" y2="160.94" xlink:href="#linear-gradient-53"/><linearGradient id="linear-gradient-67" x1="541.59" y1="167.03" x2="541.59" y2="165.79" xlink:href="#linear-gradient-53"/><linearGradient id="linear-gradient-68" x1="541.61" y1="172.42" x2="541.61" y2="171.05" xlink:href="#linear-gradient-53"/><linearGradient id="linear-gradient-69" x1="541.61" y1="177.61" x2="541.61" y2="175.74" xlink:href="#linear-gradient-53"/><linearGradient id="linear-gradient-70" x1="541.69" y1="183.17" x2="541.69" y2="181.23" xlink:href="#linear-gradient-53"/><linearGradient id="linear-gradient-71" x1="350.17" y1="100.78" x2="350.17" y2="103.71" gradientUnits="userSpaceOnUse"><stop offset="0" stop-color="#6726d2"/><stop offset="1" stop-color="#5977e7"/></linearGradient><radialGradient id="radial-gradient-7" cx="372.85" cy="170.87" r="49.72" gradientUnits="userSpaceOnUse"><stop offset="0.04" stop-color="#fffacc"/><stop offset="1" stop-color="#fffacc"/></radialGradient><filter id="luminosity-noclip-44" x="354.82" y="100.78" width="36.07" height="5.89" filterUnits="userSpaceOnUse" color-interpolation-filters="sRGB"><feFlood flood-color="#fff" result="bg"/><feBlend in="SourceGraphic" in2="bg"/></filter><mask id="mask-46" x="354.82" y="100.78" width="36.07" height="5.89" maskUnits="userSpaceOnUse"><g class="cls-37"><polygon class="cls-38" points="390.89 104.52 354.81 100.78 354.81 102.91 390.89 106.67 390.89 104.52"/></g></mask><linearGradient id="linear-gradient-72" x1="354.82" y1="103.73" x2="390.89" y2="103.73" gradientUnits="userSpaceOnUse"><stop offset="0" stop-color="#ac48ff"/><stop offset="1" stop-color="#a43bff"/></linearGradient><linearGradient id="linear-gradient-73" x1="373.4" y1="105.89" x2="366.38" y2="109.59" gradientUnits="userSpaceOnUse"><stop offset="0" stop-color="#88cfda"/><stop offset="0.89" stop-color="#94d1d4"/></linearGradient><linearGradient id="linear-gradient-74" x1="376.85" y1="113.73" x2="370.01" y2="117.32" xlink:href="#linear-gradient-73"/><linearGradient id="linear-gradient-75" x1="376.66" y1="129.65" x2="371.63" y2="132.3" xlink:href="#linear-gradient-73"/><linearGradient id="linear-gradient-76" x1="379.26" y1="144.05" x2="376.05" y2="145.73" xlink:href="#linear-gradient-73"/><linearGradient id="linear-gradient-77" x1="379.2" y1="153.08" x2="374.37" y2="155.62" xlink:href="#linear-gradient-73"/><linearGradient id="linear-gradient-78" x1="380.16" y1="164.94" x2="376.83" y2="166.69" xlink:href="#linear-gradient-73"/><linearGradient id="linear-gradient-79" x1="300.75" y1="223.94" x2="300.75" y2="130.26" gradientUnits="userSpaceOnUse"><stop offset="0" stop-color="#1a0035"/><stop offset="0.17" stop-color="#240847"/><stop offset="0.51" stop-color="#351667"/><stop offset="0.8" stop-color="#3f1f7a"/><stop offset="1" stop-color="#432281"/></linearGradient><linearGradient id="linear-gradient-80" x1="209.98" y1="124.71" x2="209.98" y2="224.91" gradientUnits="userSpaceOnUse"><stop offset="0" stop-color="#67006b"/><stop offset="1" stop-color="#591be7"/></linearGradient></defs><g class="cls-43"><g id="city"><g id="back_buildings"><polygon class="cls-44" points="426.44 100.94 438.78 99.9 438.78 104.12 435.5 103.67 426.44 104.37 426.44 100.94"/><polygon class="cls-45" points="435.5 196.25 459.32 193.26 459.32 106.65 435.5 103.67 435.5 196.25"/><polygon class="cls-46" points="446.22 197.76 459.32 193.26 459.32 106.65 446.22 105.18 446.22 197.76"/><polygon class="cls-47" points="421.22 197.26 435.5 198.43 435.5 103.67 421.22 104.78 421.22 197.26"/><polygon class="cls-48" points="421.22 197.26 425.33 109.86 435.5 103.67 421.22 104.78 421.22 197.26"/><g class="cls-49"><g class="cls-50"><g class="cls-49"><circle class="cls-51" cx="413.18" cy="171.28" r="50.18"/></g></g></g><g class="cls-52"><polygon class="cls-53" points="442.13 107.69 437.67 107.17 437.67 106.44 442.13 106.97 442.13 107.69"/></g><g class="cls-54"><polygon class="cls-55" points="447.13 111.39 443.28 110.98 443.28 112.23 447.13 112.64 447.13 111.39"/></g><g class="cls-56"><polygon class="cls-57" points="437.67 119.54 439.9 119.73 439.9 118.45 437.67 118.26 437.67 119.54"/></g><g class="cls-58"><polygon class="cls-59" points="448.13 118.12 445.2 117.86 445.2 117.04 448.13 117.31 448.13 118.12"/></g><g class="cls-60"><polygon class="cls-61" points="437.67 126.67 442.96 127.01 442.96 126.14 437.67 125.79 437.67 126.67"/></g><g class="cls-62"><polygon class="cls-63" points="446.22 131.7 444.17 131.6 444.17 130.59 446.22 130.7 446.22 131.7"/></g><g class="cls-64"><polygon class="cls-65" points="441.17 137.64 444.33 137.75 444.33 136.41 441.17 136.29 441.17 137.64"/></g><g class="cls-66"><polygon class="cls-67" points="447.96 145.47 444.67 145.43 444.67 145.02 447.96 145.07 447.96 145.47"/></g><g class="cls-68"><polygon class="cls-69" points="438.44 152.79 442.63 152.76 442.63 152.08 438.44 152.11 438.44 152.79"/></g><g class="cls-70"><polygon class="cls-71" points="450.41 157.31 443.92 157.44 443.92 158.74 450.41 158.58 450.41 157.31"/></g><g class="cls-72"><polygon class="cls-73" points="442.33 161.83 445 161.75 445 160.9 442.33 160.99 442.33 161.83"/></g><g class="cls-74"><polygon class="cls-75" points="443.92 171.04 438.44 171.36 438.44 170.18 443.92 169.88 443.92 171.04"/></g><g class="cls-76"><polygon class="cls-77" points="447.16 175.68 442.13 176.04 442.13 174.89 447.16 174.55 447.16 175.68"/></g><g class="cls-78"><polygon class="cls-79" points="440.04 187.33 443.67 186.96 443.67 185.69 440.04 186.05 440.04 187.33"/></g><polygon class="cls-80" points="431.19 109.63 434.31 109.41 434.31 108.62 431.19 108.84 431.19 109.63"/><polygon class="cls-81" points="430.5 115.19 426.5 115.42 426.5 114.65 430.5 114.41 430.5 115.19"/><polygon class="cls-82" points="433.19 120.07 431.44 120.16 431.44 119.38 433.19 119.29 433.19 120.07"/><polygon class="cls-83" points="428.94 122.27 431.44 122.15 431.44 121.71 428.94 121.83 428.94 122.27"/><polygon class="cls-84" points="429.38 131.89 427.25 131.95 427.25 131.12 429.38 131.05 429.38 131.89"/><polygon class="cls-85" points="432.56 138.81 430.5 138.85 430.5 137.91 432.56 137.86 432.56 138.81"/><polygon class="cls-86" points="428.36 145.13 432.88 145.1 432.88 144.23 428.36 144.27 428.36 145.13"/><polygon class="cls-87" points="428.31 152.79 424.56 152.77 424.56 151.81 428.31 151.82 428.31 152.79"/><polygon class="cls-88" points="432.88 163.81 430 163.74 430 162.86 432.88 162.93 432.88 163.81"/><polygon class="cls-89" points="451.77 105.7 438.78 104.08 438.78 99.9 451.77 101.67 451.77 105.7"/><g class="cls-90"><polygon class="cls-91" points="451.77 101.05 438.78 99.28 438.78 99.9 451.77 101.67 451.77 101.05"/></g><polygon class="cls-92" points="426.44 100.35 438.78 99.28 438.78 99.9 426.44 100.97 426.44 100.35"/><g class="cls-93"><polygon class="cls-94" points="443.75 103.94 440.31 103.51 440.31 101.15 443.75 101.61 443.75 103.94"/></g><g class="cls-95"><polygon class="cls-96" points="448.81 104.56 444.88 104.06 444.88 101.7 448.81 102.23 448.81 104.56"/></g><g class="cls-97"><polygon class="cls-98" points="451.38 104.86 450.41 104.74 450.41 102.43 451.38 102.56 451.38 104.86"/></g><polygon class="cls-99" points="534.92 233.61 548.26 229.47 548.26 101.3 534.92 98.77 534.92 233.61"/><polygon class="cls-100" points="512.72 226.4 534.92 228.94 534.92 98.77 512.72 100.42 512.72 226.4"/><polygon class="cls-101" points="512.72 226.4 514.74 103.03 534.92 98.77 512.72 100.42 512.72 226.4"/><g class="cls-102"><g class="cls-102"><circle class="cls-103" cx="537.93" cy="228.29" r="50.36" transform="translate(225.79 722.31) rotate(-80.71)"/></g></g><polygon class="cls-104" points="520.63 102.62 514.74 103.03 514.74 102.31 520.63 101.89 520.63 102.62"/><polygon class="cls-104" points="521.91 104.74 518.5 104.96 518.5 104.15 521.91 103.92 521.91 104.74"/><polygon class="cls-104" points="529.26 113.26 532.63 113.08 532.63 112.89 529.26 113.07 529.26 113.26"/><polygon class="cls-104" points="521.31 117.69 517.33 117.88 517.33 117.17 521.31 116.98 521.31 117.69"/><polygon class="cls-104" points="530.94 122.31 525.5 122.53 525.5 122 530.94 121.78 530.94 122.31"/><polygon class="cls-104" points="514.5 129.49 518.75 129.36 518.75 128.73 514.5 128.86 514.5 129.49"/><polygon class="cls-104" points="528.22 134.03 523.19 134.15 523.19 133.81 528.22 133.69 528.22 134.03"/><polygon class="cls-104" points="531.94 141.6 527.26 141.66 527.26 141.14 531.94 141.08 531.94 141.6"/><rect class="cls-104" x="524.65" y="149.59" width="2.62" height="0.85"/><polygon class="cls-104" points="515.42 154.81 517.13 154.83 517.13 154.71 515.42 154.69 515.42 154.81"/><polygon class="cls-104" points="528.88 159.92 526.31 159.88 526.31 159.36 528.88 159.4 528.88 159.92"/><polygon class="cls-104" points="532.22 164.73 530.94 164.7 530.94 163.56 532.22 163.59 532.22 164.73"/><polygon class="cls-104" points="522.55 171.24 524.11 171.29 524.11 170.77 522.55 170.72 522.55 171.24"/><polygon class="cls-104" points="514.7 173.63 516.55 173.69 516.55 173.14 514.7 173.07 514.7 173.63"/><polygon class="cls-104" points="527.59 177.29 526.31 177.24 526.31 176.86 527.59 176.91 527.59 177.29"/><polygon class="cls-104" points="531.74 181.37 530.21 181.3 530.21 180.5 531.74 180.56 531.74 181.37"/><g class="cls-105"><polygon class="cls-106" points="548.26 104.96 534.96 102.64 534.96 102.18 548.26 104.53 548.26 104.96"/><polygon class="cls-107" points="548.26 108.81 534.92 106.68 534.92 106.15 548.26 108.31 548.26 108.81"/><polygon class="cls-108" points="548.26 112.56 534.92 110.61 534.92 110.16 548.26 112.12 548.26 112.56"/><polygon class="cls-109" points="548.26 116.41 534.92 114.67 534.92 114.31 548.26 116.07 548.26 116.41"/><polygon class="cls-110" points="548.26 120.48 534.96 118.95 534.96 118.53 548.26 120.08 548.26 120.48"/><polygon class="cls-111" points="548.26 124.77 534.96 123.47 534.96 123.08 548.26 124.41 548.26 124.77"/><polygon class="cls-112" points="548.26 128.86 534.92 127.76 534.92 127.42 548.26 128.53 548.26 128.86"/><polygon class="cls-113" points="548.26 132.71 534.92 131.81 534.92 131.34 548.26 132.26 548.26 132.71"/><polygon class="cls-114" points="548.26 137.53 534.96 136.89 534.96 136.43 548.26 137.09 548.26 137.53"/><polygon class="cls-115" points="548.26 142.38 534.92 141.99 534.92 141.6 548.26 142.01 548.26 142.38"/><polygon class="cls-116" points="548.26 146.48 534.96 146.3 534.96 146.06 548.26 146.25 548.26 146.48"/><polygon class="cls-117" points="548.26 151.54 534.96 151.63 534.96 151.25 548.26 151.18 548.26 151.54"/><polygon class="cls-118" points="548.26 156.64 534.96 156.99 534.96 156.64 548.26 156.31 548.26 156.64"/><polygon class="cls-119" points="548.26 161.29 534.96 161.88 534.96 161.51 548.26 160.94 548.26 161.29"/><polygon class="cls-120" points="548.26 166.19 534.92 167.03 534.92 166.61 548.26 165.79 548.26 166.19"/><polygon class="cls-121" points="548.26 171.31 534.96 172.42 534.96 172.15 548.26 171.05 548.26 171.31"/><polygon class="cls-122" points="548.26 176.25 534.96 177.61 534.96 177.08 548.26 175.74 548.26 176.25"/><polygon class="cls-123" points="548.42 181.51 534.96 183.17 534.96 182.88 548.42 181.23 548.42 181.51"/></g><polygon class="cls-124" points="346.12 103.71 354.81 102.94 354.81 100.78 345.53 101.85 346.12 103.05 346.12 103.71"/><polygon class="cls-125" points="346.12 155.52 354.81 155.61 354.81 102.91 346.12 103.71 346.12 155.52"/><polygon class="cls-126" points="390.89 231.71 354.81 238.83 354.81 102.91 390.89 106.67 390.89 231.71"/><g class="cls-127"><polygon class="cls-128" points="390.89 104.52 354.81 100.78 354.81 102.91 390.89 106.67 390.89 104.52"/></g><g class="cls-129"><polygon class="cls-130" points="374.42 108.72 365.68 107.89 365.68 106.58 374.42 107.45 374.42 108.72"/><polygon class="cls-131" points="377.83 116.33 369.33 115.66 369.33 114.56 377.83 115.25 377.83 116.33"/><polygon class="cls-132" points="371.26 131.34 377.25 131.6 377.25 130.51 371.26 130.23 371.26 131.34"/><polygon class="cls-133" points="375.92 145.32 379.52 145.36 379.52 144.39 375.92 144.34 375.92 145.32"/><polygon class="cls-134" points="379.52 155.09 374.26 155.15 374.26 153.5 379.52 153.46 379.52 155.09"/><polygon class="cls-135" points="380.24 166.5 376.89 166.63 376.89 165.05 380.24 164.94 380.24 166.5"/></g><polygon class="cls-136" points="295.67 219.44 305.83 223.94 305.83 130.65 295.67 130.26 295.67 219.44"/><polygon class="cls-137" points="301.41 133.53 298.89 133.45 298.89 132.7 301.41 132.79 301.41 133.53"/><polygon class="cls-137" points="300.26 137.51 297.93 137.45 297.93 136.99 300.26 137.04 300.26 137.51"/><polygon class="cls-137" points="304.24 154.71 300.93 154.74 300.93 154.04 304.24 154.02 304.24 154.71"/><polygon class="cls-137" points="301.41 170.31 298.3 170.45 298.3 169.21 301.41 169.09 301.41 170.31"/><polygon class="cls-137" points="302.89 181.06 301.6 181.13 301.6 180.13 302.89 180.05 302.89 181.06"/><polygon class="cls-137" points="300.75 184.75 299.1 184.87 299.1 184.49 300.75 184.38 300.75 184.75"/><polygon class="cls-137" points="302.89 194.83 301.41 194.96 301.41 192.98 302.89 192.85 302.89 194.83"/><polygon class="cls-137" points="299.29 200.14 297.22 200.34 297.22 199.13 299.29 198.93 299.29 200.14"/><polygon class="cls-138" points="204.5 224.91 215.47 223.61 215.47 125.15 204.5 124.71 204.5 224.91"/><polygon class="cls-139" points="208.36 127.75 210.54 127.83 210.54 127.5 208.36 127.41 208.36 127.75"/><polygon class="cls-139" points="209.13 132.85 205.74 132.75 205.74 132.02 209.13 132.12 209.13 132.85"/><polygon class="cls-139" points="213.22 140.48 210.6 140.44 210.6 139.44 213.22 139.48 213.22 140.48"/><polygon class="cls-139" points="206.97 147.63 209.98 147.64 209.98 146.59 206.97 146.57 206.97 147.63"/><polygon class="cls-139" points="213.95 154.88 212.26 154.9 212.26 154.39 213.95 154.37 213.95 154.88"/><polygon class="cls-139" points="209.66 164.99 213.34 164.9 213.34 164.03 209.66 164.12 209.66 164.99"/><polygon class="cls-139" points="210.36 173.22 205.74 173.4 205.74 172.46 210.36 172.29 210.36 173.22"/><polygon class="cls-139" points="213.95 177.76 211.74 177.86 211.74 176.75 213.95 176.65 213.95 177.76"/><polygon class="cls-139" points="206.22 197.88 207.45 197.78 207.45 196.81 206.22 196.91 206.22 197.88"/><polygon class="cls-139" points="209.6 206.38 207.45 206.58 207.45 205.64 209.6 205.44 209.6 206.38"/></g></g></g></svg>