<svg xmlns="http://www.w3.org/2000/svg" xmlns:xlink="http://www.w3.org/1999/xlink" viewBox="0 0 700 400"><defs><style>.cls-1{fill:none;}.cls-2{isolation:isolate;}.cls-3{clip-path:url(#clip-path);}.cls-10,.cls-11,.cls-12,.cls-13,.cls-14,.cls-15,.cls-16,.cls-4,.cls-5,.cls-6,.cls-7,.cls-8,.cls-9{fill-rule:evenodd;}.cls-4{fill:url(#Áåçûìÿííûé_ãðàäèåíò_49);}.cls-5{fill:url(#Áåçûìÿííûé_ãðàäèåíò_49-2);}.cls-6{fill:#00286b;}.cls-11,.cls-12,.cls-13,.cls-7{mix-blend-mode:multiply;opacity:0.45;}.cls-7{fill:url(#Áåçûìÿííûé_ãðàäèåíò_299);}.cls-8{fill:#52a9ff;}.cls-9{fill:url(#Áåçûìÿííûé_ãðàäèåíò_49-3);}.cls-10,.cls-14,.cls-15,.cls-16{mix-blend-mode:screen;opacity:0.6;}.cls-10{fill:url(#Áåçûìÿííûé_ãðàäèåíò_56);}.cls-11{fill:url(#Áåçûìÿííûé_ãðàäèåíò_299-2);}.cls-12{fill:url(#Áåçûìÿííûé_ãðàäèåíò_299-3);}.cls-13{fill:url(#Áåçûìÿííûé_ãðàäèåíò_299-4);}.cls-14{fill:url(#Áåçûìÿííûé_ãðàäèåíò_55);}.cls-15{fill:url(#Áåçûìÿííûé_ãðàäèåíò_56-2);}.cls-16{fill:url(#Áåçûìÿííûé_ãðàäèåíò_56-3);}</style><clipPath id="clip-path"><rect class="cls-1" width="700" height="400"/></clipPath><linearGradient id="Áåçûìÿííûé_ãðàäèåíò_49" x1="-2493.62" y1="209.63" x2="-2493.62" y2="207.04" gradientTransform="matrix(-1, 0, 0, 1, -2182.78, 0)" gradientUnits="userSpaceOnUse"><stop offset="0" stop-color="#001976"/><stop offset="0.23" stop-color="#002b80"/><stop offset="0.73" stop-color="#004c94"/><stop offset="1" stop-color="#00599b"/></linearGradient><linearGradient id="Áåçûìÿííûé_ãðàäèåíò_49-2" x1="-2303.28" y1="267.87" x2="-2411.89" y2="34.96" xlink:href="#Áåçûìÿííûé_ãðàäèåíò_49"/><linearGradient id="Áåçûìÿííûé_ãðàäèåíò_299" x1="-2402.19" y1="96.17" x2="-2332.9" y2="96.17" gradientTransform="matrix(-1, 0, 0, 1, -2182.78, 0)" gradientUnits="userSpaceOnUse"><stop offset="0" stop-color="#812965"/><stop offset="1" stop-color="#4c1f5e"/></linearGradient><linearGradient id="Áåçûìÿííûé_ãðàäèåíò_49-3" x1="-2405.46" y1="155.48" x2="-2405.46" y2="110.17" xlink:href="#Áåçûìÿííûé_ãðàäèåíò_49"/><linearGradient id="Áåçûìÿííûé_ãðàäèåíò_56" x1="-2463.92" y1="135.16" x2="-2419.88" y2="135.16" gradientTransform="matrix(-1, 0, 0, 1, -2182.78, 0)" gradientUnits="userSpaceOnUse"><stop offset="0.01" stop-color="#633b77"/><stop offset="0.1" stop-color="#503061"/><stop offset="0.27" stop-color="#341f3e"/><stop offset="0.45" stop-color="#1d1123"/><stop offset="0.63" stop-color="#0d080f"/><stop offset="0.81" stop-color="#030204"/><stop offset="1"/></linearGradient><linearGradient id="Áåçûìÿííûé_ãðàäèåíò_299-2" x1="-2252.32" y1="83.06" x2="-2252.32" y2="20.45" xlink:href="#Áåçûìÿííûé_ãðàäèåíò_299"/><linearGradient id="Áåçûìÿííûé_ãðàäèåíò_299-3" x1="-2258.13" y1="150.01" x2="-2258.13" y2="149.06" xlink:href="#Áåçûìÿííûé_ãðàäèåíò_299"/><linearGradient id="Áåçûìÿííûé_ãðàäèåíò_299-4" x1="-2238.26" y1="194.18" x2="-2238.26" y2="67.16" xlink:href="#Áåçûìÿííûé_ãðàäèåíò_299"/><linearGradient id="Áåçûìÿííûé_ãðàäèåíò_55" x1="-2271.53" y1="125.34" x2="-2271.53" y2="83.07" gradientTransform="matrix(-1, 0, 0, 1, -2182.78, 0)" gradientUnits="userSpaceOnUse"><stop offset="0"/><stop offset="0.19" stop-color="#030204"/><stop offset="0.37" stop-color="#0d080f"/><stop offset="0.55" stop-color="#1d1123"/><stop offset="0.73" stop-color="#341f3e"/><stop offset="0.9" stop-color="#503061"/><stop offset="0.99" stop-color="#633b77"/></linearGradient><linearGradient id="Áåçûìÿííûé_ãðàäèåíò_56-2" x1="-2431.7" y1="67.81" x2="-2359" y2="67.81" xlink:href="#Áåçûìÿííûé_ãðàäèåíò_56"/><linearGradient id="Áåçûìÿííûé_ãðàäèåíò_56-3" x1="-2321.91" y1="58.14" x2="-2287.87" y2="58.14" xlink:href="#Áåçûìÿííûé_ãðàäèåíò_56"/></defs><g class="cls-2"><g id="sky"><g class="cls-3"><g id="clouds2"><path class="cls-4" d="M302.19,209.63h17.3a18.66,18.66,0,0,0-8.88-2.58A12.16,12.16,0,0,0,302.19,209.63Z"/><path class="cls-5" d="M179.18,198.87c-4-2.81-18.36-3.38-25.24-3.48,13.74.07,60.67.24,64.06-1,4-1.41,3.74-4.45,3.74-4.45,3.74,1.41,8.65,2.81,8.65,2.81s-12.86,7.25-11,8.65,18.7,0,58.69.7,83.95-1.4,83.95-1.4-2.34-6.08-7-6.78-10.52,1.87-10.52,1.87l-.7-2.11c-.7-2.1-12.4-19.17-18.24-21.27s-19.41-.7-22,1.16a28.85,28.85,0,0,0-4.91,4.91c-3.75-4.91-9.82,0-9.82,0s.46-6.31-3.75-7.24-13.79,1.63-13.79,1.63c5.37-3.27,6.08-7.95,6.08-7.95,6.08.93,26.89,2.11,26.89,2.11,6.78.47,26.19.23,26.19.23,6.54,3,19.64-3.74,19.64-3.74a59.27,59.27,0,0,1,15.2-.23c3.23.44,25.95,1.63,25.83-.24-.32-5.61-7.59-9.82-22.56-13.56-4-1-13.79,6.2-14.24,6.53a21.39,21.39,0,0,0,1.47-1.93c1.54-2.28,3.63-6.28,3.06-10.57a10.64,10.64,0,0,0-1.27-3.85c-4.45-8-19.18-11.23-26.2-11.7s-15,4.91-15,4.91a6.75,6.75,0,0,0,0-7.48c-2.58-4-7.49-6.31-11.46-4.67s-3.74,7.71-3.74,7.71h-6.08c-.94-10.52-10.76-15-10.76-15v-3.28s7,1.88,11-.47,7-10.52,0-19.17-27.59-14.73-32.74-13.1-6.54,8.66-6.54,8.66l-8.19,1.4s.2-.92.45-2.39c.72-4.24,1.81-13.09-.45-18-3-6.55-11.45-9.82-11.45-9.82a6.45,6.45,0,0,0,2.8-5.85q-.71-5.61-7.72-6.32a27.4,27.4,0,0,0-8.88.7L218,43.76s2.11-6.71,0-10.69-9.12-9.59-16.37-8.18-11.22,12.39-11.22,12.39a42.23,42.23,0,0,0-27.48,9.86,38.21,38.21,0,0,0-12.27,18.44c-4,14,.23,29,3.51,32.5s18,6.08,18,6.08l2.1,5.15s-6.31-1.64-10.28-.47-6.32,9.12-6.32,9.12a10.59,10.59,0,0,0-5.85-7.49A13.11,13.11,0,0,0,138.26,114l.47-7.72c5.38,2.11,7.72,0,7.72,0,4.21-7.47,2.33-21-4-25.48S123.53,78,123.53,78a13.65,13.65,0,0,1-1.64-8.89c3.51,3.75,16.14,5.15,18.48-2.8s-4.91-15.67-4.91-15.67,5.38-6.31-1.64-11.45-20.58-3-20.58-3L107.86,27s2.57-5.84,0-9.12-9.12-3.51-9.12-3.51C90.56,7.82,67.64.57,61.09,6.89,58.63,9.26,57,14.57,56.2,20.45c-1.32,9.78-.33,21.16,3,23.31a40,40,0,0,0,12.17,4.75L69.51,60.2a25.9,25.9,0,0,0-7.61-9.9c-6.56-5.4-14.82-7.91-18.13-6.54-4.47,1.85-3.13,8.1-2.84,9.24-.27-.79-1.72-4-7.67-4a9.12,9.12,0,0,0-8.65,6S15.73,46.63,4.5,49.68c-8,2.17-9,12-8.89,17.46v0a33.23,33.23,0,0,0,.24,3.57l-.21,116.72h0l0,22.18H302.19c-18.48-3.75-76.94-1.64-76.94-1.64s-5.14-4.91-17.31-6.32a111.59,111.59,0,0,0-25,.47Z"/><path class="cls-6" d="M362.05,200.74s-21.49-4.68-37.87-5.15-34.39,5.15-34.39,5.15-61.73-1.17-70.39.7c0,0,23.62,2.47,72.38,2.4S362.05,200.74,362.05,200.74Z"/><path class="cls-6" d="M230.4,192.79h27.47s-30.75-5.15-35-5.38l2.11-2.57s-23.86-4.68-44.67,0l2.11,2.93-69.92,5,42.79,2.78s47.94.49,62.67-1.14a13.21,13.21,0,0,0,3.74-4.45Z"/><path class="cls-6" d="M219.4,209.63s-48.4-6.89-114.81-5.79l8,2.83H66.71l7.48-2.83-78.34-.12-.25,5.91Z"/><path class="cls-7" d="M172.17,104.16s17.07,1.06,47.23-3.79c0,0-34.25-15.36-69.15-11.75C150.25,88.62,147.14,100.18,172.17,104.16Z"/><path class="cls-8" d="M391.15,163.09s-2.21-11.69-22.56-13.56c0,0-7.45-1.67-14.24,6.53,0,0,7.47-6.06,3.26-16.35s-11.7-11.23-16.37-12.63l3.5-3.51s2.11-3.51-3.5-7.72c0,0-3.51.47-3.28,5.15l2.6,8.54s-7.22-3.87-14.29-2.93a13.23,13.23,0,0,0-9.82,6.31s5.14-8.25-5.61-12.08-9.59,7.64-9.59,7.64h-6.08s1.63-9.35-10.76-15v-3.28s17.55,6.55,17.78-9.12S272.25,74.23,262.9,75.63s-6.78,10.53-6.78,10.53l-8.19,1.4S258.46,63,236.48,57.4c0,0,19.4,3.5,8.65,32.73l11-2.06s-.78-14.27,14.93-10,30.81,19.15,24.22,26.2S281.84,107,281.84,107l1.4,8.58s11.11,1.29,10.88,13.56l-4.8,1.17,15.9,2.11-2.92-2.93s-.13-10.51,8.19-7.24S313.81,134,313.81,134l4.39,1.28s9.56-8.09,24.21-2.45,15.9,16.66,10.17,24.11l12,1.49s-4.33-5.36,8.07-5.89S391.15,163.09,391.15,163.09Z"/><path class="cls-9" d="M281.14,154.45S271.08,126.85,247.7,118,207,127.24,207,127.24s-5.62-15.18-22.25-17-20.54,29.47-20.54,29.47l34.37,6.78,15.9,9Z"/><path class="cls-6" d="M391.15,163.09s-29.45-8.65-50.85-5.49V160H275.06s6.55-2,6.08-5.55-54.33-8.75-77.48-7.34l.19-5s-21.74-9.41-39.63-2.39l5.32,4s-34.08,9.77-100,5.56c0,0,142.09,13,207.89,15.67,0,0,47.28,4.49,62.46,2.42,0,0,1.72,2.51,10.26-3.82Z"/><path class="cls-10" d="M281.14,154.45s-12-32.71-41.43-38.57c0,0-5.87,1.49,0,32.11Z"/><path class="cls-8" d="M353.54,120c1.3-1.22,2.58-2.48,3.82-3.77a1.68,1.68,0,0,0,.5-.74c.17-.69-.53-1.27-1.18-1.57a6.1,6.1,0,0,0-5.41-.11,3.84,3.84,0,0,0-1.84,4.74c.79,1.7,3.52,2.19,4.6.66Z"/><path class="cls-8" d="M350.2,123.28c.11-.23.51,0,.45.24s-.34.36-.59.38a1.93,1.93,0,0,1-2-1.65,2.62,2.62,0,0,1,2-.27c.63.25,1,1.16.52,1.63Z"/><path class="cls-8" d="M138.26,114s-.35-1.67-3.86-9.72l4.33,2s8.42-9.7,5.73-19.17S123.53,78,123.53,78s15-4.21,22.92,5.15,1.63,22.13-.71,23.92-7.06,0-7.06,0Z"/><path class="cls-8" d="M121.89,69.08s9.24,3.63,13.33-2.1.24-16.37.24-16.37,7.71,7.13,4.91,15.67S126.46,73.06,121.89,69.08Z"/><path class="cls-8" d="M137.36,46.28S129.5,33.93,114.47,36C114.47,36,137.68,31.14,137.36,46.28Z"/><path class="cls-11" d="M59.22,43.76a40,40,0,0,0,12.17,4.75L69.51,60.2a25.9,25.9,0,0,0-7.61-9.9A46.25,46.25,0,0,1,73.17,83.06a61.43,61.43,0,0,1,10.27-9.39C79.29,74.84,75,71.5,73.5,67.46s-.75-8.53.09-12.74c1.32-6.6,3-13.3,7-18.76-5.77,3.69-13.89,1.47-18.69-3.42-3.07-3.12-4.19-7.92-5.66-12.09C54.88,30.23,55.87,41.61,59.22,43.76Z"/><path class="cls-12" d="M80.62,150a93.57,93.57,0,0,0-10.54-.95C73.58,149.48,77.11,149.75,80.62,150Z"/><path class="cls-13" d="M-4.15,70.73l-.21,116.72h0a24.25,24.25,0,0,1,.19,5.73,125.06,125.06,0,0,1,14.74.53c6.05-7,15.3-10.87,24.55-11.17s18.42,2.75,26.18,7.79a24.42,24.42,0,0,0,6,3.3,19.88,19.88,0,0,0,5.92.54q21.07-.21,42.12-1.4l-17.86-2.39c-.76-2.71,2.55-4.84,5.35-5s5.86.5,8.26-1L87.33,179.6A15.29,15.29,0,0,1,94,187.83l-20.35,2.63a19.82,19.82,0,0,1-4.86.23,19.86,19.86,0,0,1-6.23-2.22c-3.21-1.56-6.43-3.12-9.63-4.69-2.55-1.24-5.28-2.65-6.5-5.2-1.07-2.22-.77-4.82-.44-7.26.67-5.06,1.45-10.36,4.47-14.48,3.21-4.36,8.58-6.73,14-7.47a35.56,35.56,0,0,1,5.65-.31,65.44,65.44,0,0,1-15.47-3.54c-8.25-3.14-15.85-9.13-18.8-17.46.42,5.47.13,12.28-4.81,14.68-2.32,1.12-5.06.86-7.56.26-8.7-2.09-16.6-8.5-19.08-17.09s1.47-19,9.65-22.65a6.31,6.31,0,0,1,3.17-.68,7.12,7.12,0,0,1,3.61,1.92,79.88,79.88,0,0,1,8.66,9,28.76,28.76,0,0,1-6-19.84C19.37,96.93,13.07,96,8.89,92.86s-6.7-8-8.91-12.72a47,47,0,0,1-4.37-13A33.23,33.23,0,0,0-4.15,70.73Z"/><path class="cls-8" d="M344.51,195.83s-6.49-14.21-16.84-17.19-25.48-1.75-25.48-1.75L297,180.77a25.8,25.8,0,0,1,6.61-7.16c4.09-2.86,15.48-4.07,23.73-.22S344.51,195.83,344.51,195.83Z"/><path class="cls-8" d="M288.86,178.52s.08-3.17-2.34-4.26c-7.32-3.31-17.77-.7-17.77-.7s9.23-4.74,16.36-2.28S288.86,178.52,288.86,178.52Z"/><path class="cls-14" d="M125.92,104.26c-4.28-5.34-12.93-7.06-20.8-.27C97.54,95,85.4,80.83,74,83.38a33,33,0,0,0-24.2,23.12c-4.17.23-6,6-4.08,9.72s6,5.63,9.9,7.25c12.86,5.43,35.71-2.92,49.55-1C125.48,125.17,142.5,124.93,125.92,104.26Z"/><path class="cls-6" d="M128.93,122.9s-41.38-8.55-83.26-6.68C45.67,116.22,55.57,123.47,128.93,122.9Z"/><path class="cls-15" d="M245.13,90.13S219.4,107,180.73,88.88c0,0-10.43-39.47.44-50.56A168.59,168.59,0,0,1,225.4,50.61C247.47,60.43,253.92,66.1,245.13,90.13Z"/><path class="cls-16" d="M135.46,50.61s-6.12-7.91-22.47-4c0,0-8.3-.52-7.89,15,0,0,16.52,10.23,27.18,8.94C132.28,70.62,145.28,65.11,135.46,50.61Z"/></g></g></g></g></svg>