<svg xmlns="http://www.w3.org/2000/svg" xmlns:xlink="http://www.w3.org/1999/xlink" viewBox="0 0 700 400"><defs><style>.cls-1{fill:none;}.cls-2{isolation:isolate;}.cls-3{clip-path:url(#clip-path);}.cls-10,.cls-11,.cls-12,.cls-13,.cls-14,.cls-15,.cls-16,.cls-17,.cls-18,.cls-19,.cls-20,.cls-21,.cls-4,.cls-5,.cls-7,.cls-8,.cls-9{fill-rule:evenodd;}.cls-4{fill:url(#Áåçûìÿííûé_ãðàäèåíò_74);}.cls-5{fill:#00286b;}.cls-6{mix-blend-mode:multiply;opacity:0.45;}.cls-7{fill:url(#Áåçûìÿííûé_ãðàäèåíò_299);}.cls-8{fill:url(#Áåçûìÿííûé_ãðàäèåíò_299-2);}.cls-9{fill:url(#Áåçûìÿííûé_ãðàäèåíò_299-3);}.cls-10{fill:url(#Áåçûìÿííûé_ãðàäèåíò_299-4);}.cls-11{fill:url(#Áåçûìÿííûé_ãðàäèåíò_299-5);}.cls-12{fill:url(#Áåçûìÿííûé_ãðàäèåíò_299-6);}.cls-13{fill:url(#Áåçûìÿííûé_ãðàäèåíò_299-7);}.cls-14{fill:url(#Áåçûìÿííûé_ãðàäèåíò_299-8);}.cls-15{fill:url(#Áåçûìÿííûé_ãðàäèåíò_299-9);}.cls-16{fill:url(#Áåçûìÿííûé_ãðàäèåíò_299-10);}.cls-17{fill:url(#Áåçûìÿííûé_ãðàäèåíò_299-11);}.cls-18{fill:#52a9ff;}.cls-19,.cls-20,.cls-21{mix-blend-mode:screen;opacity:0.6;}.cls-19{fill:url(#Áåçûìÿííûé_ãðàäèåíò_55);}.cls-20{fill:url(#Áåçûìÿííûé_ãðàäèåíò_55-2);}.cls-21{fill:url(#Áåçûìÿííûé_ãðàäèåíò_55-3);}</style><clipPath id="clip-path"><rect class="cls-1" width="700" height="400"/></clipPath><linearGradient id="Áåçûìÿííûé_ãðàäèåíò_74" x1="-2698.3" y1="233.41" x2="-2698.3" y2="117.59" gradientTransform="matrix(-1, 0, 0, 1, -2182.78, 0)" gradientUnits="userSpaceOnUse"><stop offset="0" stop-color="#003885"/><stop offset="0.54" stop-color="#004c92"/><stop offset="1" stop-color="#00599b"/></linearGradient><linearGradient id="Áåçûìÿííûé_ãðàäèåíò_299" x1="-2691.78" y1="212.77" x2="-2691.78" y2="194.44" gradientTransform="matrix(-1, 0, 0, 1, -2182.78, 0)" gradientUnits="userSpaceOnUse"><stop offset="0" stop-color="#812965"/><stop offset="1" stop-color="#4c1f5e"/></linearGradient><linearGradient id="Áåçûìÿííûé_ãðàäèåíò_299-2" x1="-2681.69" y1="193.19" x2="-2681.69" y2="191.89" xlink:href="#Áåçûìÿííûé_ãðàäèåíò_299"/><linearGradient id="Áåçûìÿííûé_ãðàäèåíò_299-3" x1="-2690.39" y1="196.75" x2="-2690.39" y2="183.59" xlink:href="#Áåçûìÿííûé_ãðàäèåíò_299"/><linearGradient id="Áåçûìÿííûé_ãðàäèåíò_299-4" x1="-2723.32" y1="190.42" x2="-2723.32" y2="156.75" xlink:href="#Áåçûìÿííûé_ãðàäèåíò_299"/><linearGradient id="Áåçûìÿííûé_ãðàäèåíò_299-5" x1="-2711.41" y1="156.75" x2="-2711.41" y2="154.45" xlink:href="#Áåçûìÿííûé_ãðàäèåíò_299"/><linearGradient id="Áåçûìÿííûé_ãðàäèåíò_299-6" x1="-2765.7" y1="149.49" x2="-2765.7" y2="123.87" xlink:href="#Áåçûìÿííûé_ãðàäèåíò_299"/><linearGradient id="Áåçûìÿííûé_ãðàäèåíò_299-7" x1="-2764.33" y1="161.27" x2="-2764.33" y2="153.81" xlink:href="#Áåçûìÿííûé_ãðàäèåíò_299"/><linearGradient id="Áåçûìÿííûé_ãðàäèåíò_299-8" x1="-2785.87" y1="221.8" x2="-2785.87" y2="159.28" xlink:href="#Áåçûìÿííûé_ãðàäèåíò_299"/><linearGradient id="Áåçûìÿííûé_ãðàäèåíò_299-9" x1="-2844.01" y1="169.5" x2="-2844.01" y2="151.98" xlink:href="#Áåçûìÿííûé_ãðàäèåíò_299"/><linearGradient id="Áåçûìÿííûé_ãðàäèåíò_299-10" x1="-2873.29" y1="145.24" x2="-2873.29" y2="128.1" xlink:href="#Áåçûìÿííûé_ãðàäèåíò_299"/><linearGradient id="Áåçûìÿííûé_ãðàäèåíò_299-11" x1="-2858.01" y1="216.24" x2="-2858.01" y2="187.48" xlink:href="#Áåçûìÿííûé_ãðàäèåíò_299"/><linearGradient id="Áåçûìÿííûé_ãðàäèåíò_55" x1="-2730.96" y1="189.25" x2="-2730.96" y2="117.59" gradientTransform="matrix(-1, 0, 0, 1, -2182.78, 0)" gradientUnits="userSpaceOnUse"><stop offset="0"/><stop offset="0.19" stop-color="#030204"/><stop offset="0.37" stop-color="#0d080f"/><stop offset="0.55" stop-color="#1d1123"/><stop offset="0.73" stop-color="#341f3e"/><stop offset="0.9" stop-color="#503061"/><stop offset="0.99" stop-color="#633b77"/></linearGradient><linearGradient id="Áåçûìÿííûé_ãðàäèåíò_55-2" x1="-2707.76" y1="175.45" x2="-2666.51" y2="175.45" xlink:href="#Áåçûìÿííûé_ãðàäèåíò_55"/><linearGradient id="Áåçûìÿííûé_ãðàäèåíò_55-3" x1="-2760" y1="159.57" x2="-2725.65" y2="159.57" xlink:href="#Áåçûìÿííûé_ãðàäèåíò_55"/></defs><g class="cls-2"><g id="sky"><g class="cls-3"><g id="clouds3"><path class="cls-4" d="M539.36,228.11l-21.52-.23c3.75-.94,2.81-2.58,2.81-2.58,45.84-2.1,181.46-2.45,181.46-2.45V128.1a85.49,85.49,0,0,0-18.7,6.93,16.65,16.65,0,0,0,.53-1.66c.76-2.89,1.41-8.56-5.21-8.39-8.89.23-8.18,13.56-8.18,13.56-2.58,7.72,0,16.38,0,16.38l-1.08.35-4.54,1.51a14.18,14.18,0,0,0-4.37-4.8c-3.24-2.39-8.63-4.78-17.14-4.78-17.07,0-24.09,10.75-23.15,13.56a10.55,10.55,0,0,0,3.74,4.68l-.09,0-7.62,2.07c-.33-4.86-1.55-7.25-2.27-8.26a3.13,3.13,0,0,0-.54-.62c-.62-.25-1.24-.47-1.86-.68-13.72-4.68-27.84-1.9-27.84-1.9a15,15,0,0,0,.93-1.46v0h0a9.3,9.3,0,0,0,1.45-5.1,3.71,3.71,0,0,0-.3-1.13c-1.4-3-7-5.41-7-5.41s12.63-3.47,12.89-8.15c.25-4.38-2.66-9.79-3-10.45l0-.07c4.21-.23,4-4.21,0-6.31s-9.82,5.38-9.82,5.38c-5.85-2.35-14.5-1.41-16.37,3.51s0,13.56,0,13.56h-4.68c-8.42,6.08-15,23.85-15,23.85l3,3h-13.8a74.15,74.15,0,0,0-1.93-7.78h0c-.63-2.11-1.11-3.45-1.11-3.45l-.34-.24a.35.35,0,0,0-.12-.07C517.81,148.18,508,150,508,150c-5.61,2.1-10.52,12.62-10.52,12.62-8.42-1.4-8.18,0-8.18,0-5.28,8.65-4.65,19-4.48,21l0,.32c8.27,3.47,23.2,4.84,31.24,5.34,3.33.21,5.48.27,5.48.27V193h-.06c-.6-.16-5.3-1.27-8.36.48-3.27,1.87-2.8,7.25-2.8,7.25l-.59.14-3.16.79a9.62,9.62,0,0,0-3.37-7.24,9.08,9.08,0,0,0-1.77-1.18l-.12,0s0,0,0,0a18.39,18.39,0,0,0-4.85-1.3h0c-8.48-1.39-22.88-1-24.94,1.37-2.56,3.05-4.2,16.61-.7,20.11s9.82,7,9.82,7l-4.44,2.1s-2.33-4.67-5.84-6.31-8.89-.93-12.4,1.17-5.84,13.33-5.84,13.33h-5.61a6.44,6.44,0,0,0-4.91-5.15c-4.45-1.16-6.09,2.35-6.09,2.35S429.92,215,422.91,212.2s-13.1-2.8-19.88,0S387.66,228,387.66,228c-16.84-.24-58.74,5.46-58.74,5.46l246.74-2.73-12.27-2.49s-1-3.06-9.21-3.06A39.78,39.78,0,0,0,539.36,228.11Z"/><path class="cls-5" d="M575.66,230.68,404,229.39l-75.06,4S469.09,233.49,575.66,230.68Z"/><g class="cls-6"><path class="cls-7" d="M496.87,208.18c3.52,0,6.42,2.73,9.79,3.76a21.23,21.23,0,0,0,5.85.66l8.61.17a118.41,118.41,0,0,1-9.21-9.13,17.14,17.14,0,0,1-2.13-2.75l-3.16.79a9.62,9.62,0,0,0-3.37-7.24c1.64,2,1.27,6.12.33,8.28A9.45,9.45,0,0,1,496.87,208.18Z"/><path class="cls-8" d="M501.33,193.19a18.39,18.39,0,0,0-4.85-1.3l.26.1C498,192.45,499.85,192.64,501.33,193.19Z"/><path class="cls-9" d="M484.84,183.59l0,.32c11.7,4.91,36.72,5.61,36.72,5.61V193h-.06a3.1,3.1,0,0,1,.36,3.73,34.06,34.06,0,0,1,8.49-4.13l-7-3.35a10.76,10.76,0,0,0-2.12-.84,11.84,11.84,0,0,0-3.31-.13A87.25,87.25,0,0,1,484.84,183.59Z"/><path class="cls-10" d="M522.69,171.47a44.23,44.23,0,0,1,13.68-.25,19.62,19.62,0,0,1,11.86,6.35c2.92,3.52,4.09,8.66,2.26,12.85a25.76,25.76,0,0,0,7.9-11.69,11.38,11.38,0,0,1-10.11-10.51,19.93,19.93,0,0,1-7-.91h-9.13a74.15,74.15,0,0,0-1.93-7.78h0a13.71,13.71,0,0,1-1.28-2.78A15.38,15.38,0,0,1,522.69,171.47Z"/><path class="cls-11" d="M528.61,155.77c.09.33.19.65.29,1,0-.3-.1-.61-.17-.91a13.62,13.62,0,0,0-.38-1.39C528.42,154.9,528.5,155.34,528.61,155.77Z"/><path class="cls-12" d="M574.06,146.23a28.73,28.73,0,0,1,6.81.42,10.22,10.22,0,0,1,5.32,2.84,3.71,3.71,0,0,0-.3-1.13c-1.4-3-7-5.41-7-5.41s12.63-3.47,12.89-8.15c.25-4.38-2.66-9.79-3-10.45-1.23-.2-2.56,0-3.71-.48a7.69,7.69,0,0,1,4.43,7.75,11.15,11.15,0,0,1-4.87,7.88c-3,2.12-7.53,2.83-10.06.19A46.19,46.19,0,0,1,574.06,146.23Z"/><path class="cls-13" d="M577,155.51a23.57,23.57,0,0,1,1.53,5.76c-.26-2,6-6.81,7.55-7.46C583.81,155.53,579.78,155.68,577,155.51Z"/><path class="cls-14" d="M561.92,219.49a6.31,6.31,0,0,0,2.34,1.32c5.11,1.82,10.72.65,16.13.25,3.9-.28,7.82-.14,11.73-.14,18,0,35.8-2.93,53.54-5.87a58.75,58.75,0,0,1-15-4A13.16,13.16,0,0,1,627,209c-2.16-1.88-3-4.82-3.65-7.62a69.72,69.72,0,0,1-1.36-9,7.16,7.16,0,0,1,.53-4.21,6.61,6.61,0,0,1,2.16-2.08,31.24,31.24,0,0,1,7.22-3.66c1-.34,2.23-.55,2.85.27a17.91,17.91,0,0,1-1.92-3.55c-3.76,1.75-8.29,2.52-12,.66s-5.75-7.07-3.3-10.41c1.54-2.11,4.28-2.91,6.81-3.59l-.4-.36-7.62,2.07c-.33-4.86-1.55-7.25-2.27-8.26-.11,6.52-1.72,12.54-7.16,16.79A19.26,19.26,0,0,1,588,178.66a21.21,21.21,0,0,1-.66,14.6l6.5-8.53a5.51,5.51,0,0,1,1.89-1.8,5.39,5.39,0,0,1,2.15-.38c5-.2,10.37-.24,14.48,2.58,5.89,4,6.85,13.06,3.14,19.15s-11,9.35-18.09,9.84a7.15,7.15,0,0,1-2.61-.18,7,7,0,0,1-2.68-1.85,27.26,27.26,0,0,1-5.48-7.89c-.62,2.19-1.35,4.55-3.17,5.93a9.54,9.54,0,0,1-2.23,1.13,28.82,28.82,0,0,1-20,.07C560.47,214.1,559.87,217.49,561.92,219.49Z"/><path class="cls-15" d="M652.15,169.5a55.85,55.85,0,0,0,16.74-6.84,2.26,2.26,0,0,0,1.4-2.51,16.11,16.11,0,0,0-.82-4.88l-4.54,1.51a14.18,14.18,0,0,0-4.37-4.8c.12.45.26.9.35,1.34a13,13,0,0,1-1.12,8.08A20.58,20.58,0,0,1,652.15,169.5Z"/><path class="cls-16" d="M678.91,136.61a12.74,12.74,0,0,1,10.55,8.63l9.35-3.37a11.27,11.27,0,0,0,2.79-1.3,5.37,5.37,0,0,0,.51-.41V128.1a85.49,85.49,0,0,0-18.7,6.93,16.65,16.65,0,0,0,.53-1.66A16.92,16.92,0,0,1,678.91,136.61Z"/><path class="cls-17" d="M695.12,197.31a19.87,19.87,0,0,1-15.53,3.17c-1.57-.34-3.3-1-3.84-2.57-.69-1.91.85-3.84,2.26-5.29a38.37,38.37,0,0,1-23.86,7.49,29.82,29.82,0,0,0,13.86.71c.86,2.2-.12,4.79-1.83,6.43a15.32,15.32,0,0,1-6.26,3.18,79.56,79.56,0,0,1-15.82,3c4.28,2.29,9.36,2.39,14.21,2.43l10.54.09,34.62.31a2.45,2.45,0,0,0,2-.62,2.41,2.41,0,0,0,.36-1.36c.44-7.7,1.1-16.69-.58-24.28-.78-3.51-2.37-3.06-3.82-.24A20.53,20.53,0,0,1,695.12,197.31Z"/></g><path class="cls-5" d="M702.11,210.25l-120,6.37,6.08-3.18s-51.44-2.68-84.65-3.19c0,0-22.91,5.93-32.74,3.12a53.68,53.68,0,0,0,9.83,7l40,4.91s144.28-3.74,181.46-2.45Z"/><path class="cls-18" d="M528.73,155.84a33.27,33.27,0,0,0-16-3.53,16.32,16.32,0,0,0-5.09,12.89l-10.11-2.57s3.15-10.91,10.11-14.34C507.61,148.29,514.6,147.42,528.73,155.84Z"/><path class="cls-18" d="M493.3,162.09s-8.5,9.48-8.46,21.5c0,0-5.14-8.94,4.23-22.32Z"/><path class="cls-18" d="M505.23,196.75s-18-1.28-33,6.86c0,0-4.83,3.64-1.41,9.76,0,0-7.41-8.47-1.22-20.83C469.62,192.54,501.27,185.27,505.23,196.75Z"/><path class="cls-18" d="M435.53,227.88a30.71,30.71,0,0,0-11.22-11.64c-7.72-4.5-31.91,6.39-36.65,11.71,0,0,7.65-14.27,14.44-17.7s19.4-.15,24.08,4.06S435.53,227.88,435.53,227.88Z"/><path class="cls-18" d="M588.74,124.35s1.12-2.52-2.26-3.81-7.6,2.81-7.6,2.81l2.67,2s-8.85-3.33-15.87,0-1.77,15.26-1.77,15.26L569,143s-2.2-2.17-10.61,2.29-15.52,19-15.52,19,3.44-17.54,15-23.85h4.68s-4.21-11.69,1.23-16.55S577,122.74,577,122.74s3.55-5.34,9.08-5.15,6.76,3.18,6.94,5.11S588.74,124.35,588.74,124.35Z"/><path class="cls-18" d="M650.18,147.77s-20,3.69-28.6,15.36a8,8,0,0,1-2.71-5.59S624.44,144.13,650.18,147.77Z"/><path class="cls-18" d="M500.51,149.17c-1.95.51-4.48.15-5.29-1.7-.67-1.52.16-3.27,1.08-4.65a9.28,9.28,0,0,1,2.25-2.5,3.92,3.92,0,0,1,3.2-.68C506.65,141,504.41,148.13,500.51,149.17Z"/><path class="cls-18" d="M508,145.42a1,1,0,0,0,1-1.23,1.22,1.22,0,0,0-1.59-.62,1.69,1.69,0,0,0-1,1.53.83.83,0,0,0,1.49.19Z"/><path class="cls-18" d="M466.26,184.91a8.11,8.11,0,0,1-.29,4.23,1.52,1.52,0,0,1-.39.7,1.69,1.69,0,0,1-1.64.12,7.6,7.6,0,0,1-5.29-5.45,3.53,3.53,0,0,1,.21-2.27,3.32,3.32,0,0,1,4.22-1.22,7,7,0,0,1,3.24,3.47Z"/><path class="cls-18" d="M577.81,115.21a2.75,2.75,0,0,1-2.85.94,3.31,3.31,0,0,1,1.26-3.17,1.94,1.94,0,0,1,2.87,1c-.33.38-.67.76-1,1.15Z"/><path class="cls-19" d="M484.84,183.59l0,.32c8.27,3.47,23.2,4.84,31.24,5.34l18.23-5.18c4.62-1.32,9.31-2.66,13.38-5.19,4.68-2.9,8.33-7.22,13-10.18a27.5,27.5,0,0,1,22-3.24,33.29,33.29,0,0,1,21.82-7.41,43.7,43.7,0,0,0,7.14-.07c-13.72-4.68-27.84-1.9-27.84-1.9a15,15,0,0,0,.93-1.46v0h0a9.3,9.3,0,0,0,1.45-5.1,3.71,3.71,0,0,0-.3-1.13c-1.4-3-7-5.41-7-5.41s12.63-3.47,12.89-8.15c.25-4.38-2.66-9.79-3-10.45l0-.07c4.21-.23,4-4.21,0-6.31s-9.82,5.38-9.82,5.38c-5.85-2.35-14.5-1.41-16.37,3.51s0,13.56,0,13.56h-4.68c-8.42,6.08-15,23.85-15,23.85l3,3h-13.8a74.15,74.15,0,0,0-1.93-7.78h0c-.63-2.11-1.11-3.45-1.11-3.45l-.34-.24a.35.35,0,0,0-.12-.07C517.81,148.18,508,150,508,150c-5.61,2.1-10.52,12.62-10.52,12.62-8.42-1.4-8.18,0-8.18,0C484,171.28,484.67,181.64,484.84,183.59Z"/><path class="cls-20" d="M525,172.43s-26.22-11.69-35.91-11.16c0,0-8.3,8.63-4.2,22.64,0,0,20.71,6.67,36.72,5.61Z"/><path class="cls-21" d="M577,155.51s.7-8.78-19.18-15.09c0,0-12.51,13-15,23.85,0,0,5.78,10,15.52,14.46C558.39,178.73,579.5,171.34,577,155.51Z"/></g></g></g></g></svg>