<svg xmlns="http://www.w3.org/2000/svg" xmlns:xlink="http://www.w3.org/1999/xlink" viewBox="0 0 700 400"><defs><style>.cls-1{fill:none;}.cls-2{isolation:isolate;}.cls-3{clip-path:url(#clip-path);}.cls-4,.cls-5{fill:#4799fc;}.cls-10,.cls-11,.cls-12,.cls-13,.cls-14,.cls-4,.cls-7,.cls-9{fill-rule:evenodd;}.cls-6,.cls-7{fill:#47cafc;}.cls-8{clip-path:url(#clip-path-2);}.cls-9{fill:url(#Áåçûìÿííûé_ãðàäèåíò_83);}.cls-10{fill:url(#Áåçûìÿííûé_ãðàäèåíò_83-2);}.cls-11{fill:url(#Áåçûìÿííûé_ãðàäèåíò_94);}.cls-12,.cls-13,.cls-14{mix-blend-mode:multiply;opacity:0.45;}.cls-12{fill:url(#Áåçûìÿííûé_ãðàäèåíò_299);}.cls-13{fill:url(#Áåçûìÿííûé_ãðàäèåíò_299-2);}.cls-14{fill:url(#Áåçûìÿííûé_ãðàäèåíò_299-3);}</style><clipPath id="clip-path"><rect class="cls-1" x="-718.8" y="7.06" width="700" height="400"/></clipPath><clipPath id="clip-path-2"><rect class="cls-1" width="700" height="400"/></clipPath><linearGradient id="Áåçûìÿííûé_ãðàäèåíò_83" x1="350.73" y1="248.79" x2="350.73" y2="209.63" gradientUnits="userSpaceOnUse"><stop offset="0" stop-color="#006fb3"/><stop offset="0.52" stop-color="#006ea0"/><stop offset="1" stop-color="#006d93"/></linearGradient><linearGradient id="Áåçûìÿííûé_ãðàäèåíò_83-2" x1="529.67" y1="248.79" x2="529.67" y2="235.8" xlink:href="#Áåçûìÿííûé_ãðàäèåíò_83"/><linearGradient id="Áåçûìÿííûé_ãðàäèåíò_94" x1="350.73" y1="275.59" x2="350.73" y2="248.79" gradientUnits="userSpaceOnUse"><stop offset="0" stop-color="#0090b3"/><stop offset="0.42" stop-color="#0084ad"/><stop offset="1" stop-color="#0077a7"/></linearGradient><linearGradient id="Áåçûìÿííûé_ãðàäèåíò_299" x1="453.23" y1="231.47" x2="701.62" y2="231.47" gradientUnits="userSpaceOnUse"><stop offset="0" stop-color="#812965"/><stop offset="1" stop-color="#4c1f5e"/></linearGradient><linearGradient id="Áåçûìÿííûé_ãðàäèåíò_299-2" x1="464.95" y1="222.2" x2="616.6" y2="222.2" xlink:href="#Áåçûìÿííûé_ãðàäèåíò_299"/><linearGradient id="Áåçûìÿííûé_ãðàäèåíò_299-3" x1="-0.16" y1="236.18" x2="291.49" y2="236.18" xlink:href="#Áåçûìÿííûé_ãðàäèåíò_299"/></defs><g class="cls-2"><g id="sky"><g class="cls-3"><g id="stars"><path class="cls-4" d="M71.38,3.09a.45.45,0,1,1-.45-.44A.45.45,0,0,1,71.38,3.09Z"/><circle class="cls-5" cx="2.66" cy="15.59" r="0.45"/><path class="cls-4" d="M5.14,9.23a.45.45,0,1,1-.45-.45A.45.45,0,0,1,5.14,9.23Z"/><path class="cls-4" d="M48.75,30.75a.45.45,0,1,1-.45-.45A.45.45,0,0,1,48.75,30.75Z"/><circle class="cls-5" cx="35.81" cy="35.28" r="0.45"/><circle class="cls-6" cx="33.3" cy="29.64" r="0.45"/><path class="cls-7" d="M80.41,27.18a.45.45,0,1,1-.44-.45A.45.45,0,0,1,80.41,27.18Z"/><path class="cls-4" d="M112,13.39a.45.45,0,1,1-.44-.44A.45.45,0,0,1,112,13.39Z"/><circle class="cls-5" cx="88.89" cy="41.05" r="0.45"/><circle class="cls-6" cx="109.02" cy="7.76" r="0.45"/></g></g><g class="cls-8"><g id="clouds4"><path class="cls-9" d="M701.62,209.63,478.28,219A14.65,14.65,0,0,0,465,224.59H422.86s-11.69-3.51-17.77-3.27-7.25,3.27-7.25,3.27H318.1L-.16,220.85v12.89l203.94,4.09,39.49.79s-1.4,2.81-6.08,5.15c0,0-22.92-4-32.5-3s-10.76,3-10.76,3h-7.49s-2.57-3.28-10.05-4-7.95,4-7.95,4L-.16,247.48l477.39,1.31-34.38-3.85s.36-6.32-14.73-7.72-17.89,7.36-17.89,7.36l-15.08,1.06s-1-2.11-9.12-3.86-9.12,1.05-9.12,1.05-3.51-4.91-15.08-7.37-21.05,5.27-21.05,5.27-31.92-7.37-55.77-6.67l416.61-.32Z"/><path class="cls-10" d="M480.74,248.79l15.78-3.15s3.53-9.47,16-9.82,14.9,4.91,14.9,4.91,10.17-1.76,13.33,4.91l37.88,3.15Z"/><path class="cls-11" d="M578.6,248.79,679,254.58S542.8,256.16,373,258.26s-186.6,0-186.6,0L363,254H238.83s-31.81-7.9-75.53-2.52L65.78,254l102.43,3.1L-.16,259.2v8.18l701.41,8.21.37-16-220.88,3.8,220.63-6.55v-8.07Z"/><polygon class="cls-12" points="701.62 229.21 453.23 233.74 701.62 233.74 701.62 229.21"/><path class="cls-13" d="M471.46,219.8H616.6L465,224.59S464.63,220.62,471.46,219.8Z"/><polygon class="cls-14" points="-0.16 233.74 188.84 233.92 291.49 234.06 243.27 238.62 -0.16 233.74"/></g></g></g></g></svg>