<svg xmlns="http://www.w3.org/2000/svg" xmlns:xlink="http://www.w3.org/1999/xlink" viewBox="0 0 700 400"><defs><style>.cls-1{fill:none;}.cls-2{isolation:isolate;}.cls-3{clip-path:url(#clip-path);}.cls-10,.cls-4,.cls-5,.cls-6,.cls-7,.cls-8,.cls-9{fill-rule:evenodd;}.cls-4{fill:url(#Áåçûìÿííûé_ãðàäèåíò_68);}.cls-5{fill:url(#Áåçûìÿííûé_ãðàäèåíò_195);}.cls-10,.cls-6,.cls-7,.cls-8{mix-blend-mode:multiply;opacity:0.45;}.cls-6{fill:url(#Áåçûìÿííûé_ãðàäèåíò_299);}.cls-7{fill:url(#Áåçûìÿííûé_ãðàäèåíò_299-2);}.cls-8{fill:url(#Áåçûìÿííûé_ãðàäèåíò_299-3);}.cls-9{fill:#365be0;}.cls-10{fill:url(#Áåçûìÿííûé_ãðàäèåíò_299-4);}</style><clipPath id="clip-path"><rect class="cls-1" x="-0.32" y="1.22" width="700" height="400"/></clipPath><linearGradient id="Áåçûìÿííûé_ãðàäèåíò_68" x1="10.39" y1="24.47" x2="10.39" y2="11.38" gradientUnits="userSpaceOnUse"><stop offset="0" stop-color="#002b88"/><stop offset="0.23" stop-color="#002576"/><stop offset="0.73" stop-color="#001a55"/><stop offset="1" stop-color="#001648"/></linearGradient><linearGradient id="Áåçûìÿííûé_ãðàäèåíò_195" x1="282.94" y1="89.85" x2="282.94" y2="0.62" gradientUnits="userSpaceOnUse"><stop offset="0" stop-color="#0055a3"/><stop offset="0.42" stop-color="#003677"/><stop offset="0.8" stop-color="#001f55"/><stop offset="1" stop-color="#001648"/></linearGradient><linearGradient id="Áåçûìÿííûé_ãðàäèåíò_299" x1="380.96" y1="33.83" x2="380.96" y2="0.62" gradientUnits="userSpaceOnUse"><stop offset="0" stop-color="#812965"/><stop offset="1" stop-color="#4c1f5e"/></linearGradient><linearGradient id="Áåçûìÿííûé_ãðàäèåíò_299-2" x1="198.05" y1="43.18" x2="198.05" y2="28.68" xlink:href="#Áåçûìÿííûé_ãðàäèåíò_299"/><linearGradient id="Áåçûìÿííûé_ãðàäèåíò_299-3" x1="108.37" y1="47.14" x2="108.37" y2="24.01" xlink:href="#Áåçûìÿííûé_ãðàäèåíò_299"/><linearGradient id="Áåçûìÿííûé_ãðàäèåíò_299-4" x1="370.58" y1="61.43" x2="370.58" y2="42.83" xlink:href="#Áåçûìÿííûé_ãðàäèåíò_299"/></defs><g class="cls-2"><g id="sky"><g class="cls-3"><g id="clouds1"><path class="cls-4" d="M16.12,20.74l5.13,3.73c-.51-.16-16.9-5.18-21.73-7.94V11.38A96.82,96.82,0,0,0,16.12,20.74Z"/><path class="cls-5" d="M547.18,21.2l4.21.47s-36,16.6-53.32,21.75c0,0-1.4-.94,0-4,0,0-24.32,11.69-48.64,22.22L440.31,64a33.58,33.58,0,0,0-5.14,4.21c-1.64,1.88-21.75,6.32-25.73,4.68,0,0,11.23-6.08,21.29-8.65L438,62.59l-5.84-2.34s-19.41,9.83-35.55,15c0,0,1.64.7,0,4.68-.52,1.26-5.36,2.63-11.73,3.93h-.07c-13.73,2.79-34.5,5.18-34.5,5.18s-11.92,1.87-20.11,0c0,0,6.31-8.89,16.84-7.49a41.87,41.87,0,0,1,7-7.25c3.51-2.57,14.71-5.14,18.7-3.73s6.09,5.84,6.09,5.84l9.12-3.74s-15.9-.94-20.81-11.22c0,0-10.19,11-21.53,15.17h0c-.47.18-.94.34-1.42.49,0,0-32,8-60.29,0,0,0-.93-5.6,4.9-16.32v0h0s-6.55-6.08-7.48-9.82,1.64-14,8.18-16.83,9.12.46,9.12.46l4-.7s-2.81-2.81-.7-7.25,6.08-5.38,11-4.44L314,20.27s-7.24-.94-11-3.74,2.38-12.38,2.68-12.85c-.34.26-6.08,4.65-10.17,4.19s-1.4-4.67-1.4-4.67l-5.84.7h0v0h0s0,0,0,0l0,0a114.2,114.2,0,0,1-11.3,9.64l-.06,0C273.11,16.45,269,19,265.4,20h0c-.65.14-15.28,3.29-23.81.57h0a11.43,11.43,0,0,1-2.67-1.19l-.07,0,0,0,0,0s-6.55.47-10.52,5.62c0,0,11.38-2.57,18.52.09a10.93,10.93,0,0,1,2.52,1.31c6.55,4.67,5.38,12.39,5.38,12.39s-14.73,1.64-26.42.24V37.1s-6.32-.93-13.1-2.57l-11.91,4.9c.44-.07,8.13-1.3,14.48,1.88a7.78,7.78,0,0,1,2.38,1.86v0c4,4.58,3.43,13.69,1.82,17.3-1.87,4.2-13.8,6.31-13.8,6.31s4.91.24,7.26,2.8A6.91,6.91,0,0,1,217.22,75s-5.14-.24-19.4-4.68a27.67,27.67,0,0,1,6.54-2.57l-9.12-3s.47,2.81-7.24,2.81c-7.52,0-15.94-8-16.36-8.41h0S150,54,127.58,47.14h-.07c-10.82-3.29-21.82-7-30.71-10.71,0,0,1.87,6.91-4,8.83a155.92,155.92,0,0,1-35.07-5.32s-3-1.4-1.64-6.08l-4.68-2.34S6.3,13.72-.48,7.64v-7H566.35s-26.89,9.79-54.05,23.09c1-.42,6.76-2.83,7.4.06.7,3.16-3.51,6-3.51,6H530.1s-.7-4.09,4-6.67S547.18,21.2,547.18,21.2Z"/><path class="cls-6" d="M491.76,5.68c-15.9-5.47-76.24-.15-76,5.94s6.06,15.94,6.3,16.35c-.4-.55-13.75-18.29-56.11-22.29-43-4.07-52.38,8.27-47.24,11.08s15.68.11,16.12,0l-9.57,7.94c-19.64.94-22.68,9.12-22.68,9.12s-2.81-2.81-.7-7.25,6.08-5.38,11-4.44L314,20.27s-7.24-.94-11-3.74,2.38-12.38,2.68-12.85c-.34.26-6.08,4.65-10.17,4.19s-1.4-4.67-1.4-4.67l-5.84.7S275,17.23,265.4,20c0,0-18.94,4.2-26.66-.71,0,0-6.55.47-10.52,5.62,0,0,11.38-2.57,18.52.09-13.78-.5-31.38,1.77-31.38,1.77l9.35-2.8s12.39-8.18,11-14.74-11-8.65-11-8.65H546.56L488,18.62S507.66,11.15,491.76,5.68Z"/><path class="cls-7" d="M203.2,39.44A53.56,53.56,0,0,0,181,43.18s24.55-11.22,31.8-14.5l2.34,5.85Z"/><path class="cls-8" d="M96.8,36.4,76.22,24s16.84,6.78,35.08,8,29.23,0,29.23,0-16.84,3.91-19.88,6.16,6.93,9,6.93,9S102.91,40.08,96.8,36.4Z"/><path class="cls-9" d="M56.11,33.83a4.58,4.58,0,0,0,0,3.51c.78,1.91,37.93,4.32,40.53,4.26,0,0-.43,2.29-3.82,3.63,0,0-22.33-.88-35.07-5.32C57.75,39.91,54.59,39.44,56.11,33.83Z"/><path class="cls-9" d="M195.24,64.69s.47,2.81-7.24,2.81c-7.52,0-15.94-8-16.36-8.41C172.1,59.34,185.59,66.53,195.24,64.69Z"/><path class="cls-9" d="M221.9,60.49c-1.87,4.2-13.8,6.31-13.8,6.31s4.91.24,7.26,2.8A6.91,6.91,0,0,1,217.22,75s-5.14-.24-19.4-4.68a27.67,27.67,0,0,1,6.54-2.57l-9.12-3L192.67,62s5.85,1.55,17.54,0,12.25-14.88,9.87-18.85C224.08,47.77,223.51,56.88,221.9,60.49Z"/><path class="cls-9" d="M254.64,38.74s-14.73,1.64-26.42.24V37.1s-6.32-.93-13.1-2.57l17.7-.7-2,2.1S244.82,39,254.64,38.74Z"/><path class="cls-9" d="M238.74,19.33l-3.86-2.1s19.75,2,34.26-3.51S288.32,3.9,288.32,3.9A68.76,68.76,0,0,1,265.4,20,31.37,31.37,0,0,1,238.74,19.33Z"/><path class="cls-9" d="M350.21,73.94l-4.62,2.66h0c-.47.18-.94.34-1.42.49,0,0-32,8-60.29,0,0,0-.93-5.6,4.9-16.32-.17.59-2.06,7.87,0,12.81a126.22,126.22,0,0,0,36,4.21C343,77.13,349.47,74.29,350.21,73.94Z"/><path class="cls-9" d="M384.78,83.84c-13.73,2.79-34.5,5.18-34.5,5.18s-11.92,1.87-20.11,0c0,0,11.69-1.41,25.25-4.21l-1.63,2.1Z"/><path class="cls-9" d="M218.39,78.84l-1.28.08a27.21,27.21,0,0,0,9.94,4,12.06,12.06,0,0,0-10-4.48Z"/><path class="cls-9" d="M209.37,77.29a4.42,4.42,0,0,0-4.06-.23A6.89,6.89,0,0,0,210,78.47a1.41,1.41,0,0,0-1.4-1.28Z"/><path class="cls-9" d="M322.35,91.56A10.83,10.83,0,0,1,327,89.3c1.16-.07,1.8,1.55,1.25,2.58a4.46,4.46,0,0,1-2.86,1.82,3.68,3.68,0,0,1-2.53.08,1.41,1.41,0,0,1-.64-2.11Z"/><path class="cls-9" d="M270.35,21c-.1.2-.45.05-.47-.17s.16-.41.32-.57a11.07,11.07,0,0,1,8.11-2.83,2.11,2.11,0,0,1,1.68.71,2.14,2.14,0,0,1-.2,2.13,11.67,11.67,0,0,1-9.91,6.16,2.45,2.45,0,0,1-1.83-.51c-.83-.82-.29-2.28.54-3.11s1.93-1.49,2.33-2.59Z"/><path class="cls-9" d="M271.63,15.18a9.42,9.42,0,0,0-4.9,4.53,18.68,18.68,0,0,1,6.4-.67,1.77,1.77,0,0,0,1-.12,1.56,1.56,0,0,0,.59-.81,10.31,10.31,0,0,0,.78-4.1,6,6,0,0,0-5.19,1.35Z"/><path class="cls-9" d="M84,48.77c0,.2-.38-.06-.24-.21s.38-.08.57,0c1.36.61,2.7,1.25,4,1.94.87-.65.17-2-.56-2.8a5.31,5.31,0,0,0-1.67-1.39,1.79,1.79,0,0,0-2,.27,1.11,1.11,0,0,0,.38,1.78Z"/><path class="cls-9" d="M313,82.57a3.7,3.7,0,0,1,2,1.16,4.19,4.19,0,0,1,.63,2.07c.16,1.36.24,2.94-.76,3.87a4.13,4.13,0,0,1-2.67.8,26.57,26.57,0,0,1-14.49-3.66c-.32-.19-.66-.44-.67-.8a1.1,1.1,0,0,1,.4-.74C301.19,81.49,308.1,81.05,313,82.57Z"/><path class="cls-10" d="M367.12,61.43s-1.45-8-15.11-10.93c0,0,21.51-.78,37.13-7.67C389.14,42.83,369.71,52.13,367.12,61.43Z"/></g></g></g></g></svg>