<svg id="sky" xmlns="http://www.w3.org/2000/svg" xmlns:xlink="http://www.w3.org/1999/xlink" viewBox="0 0 700 400"><defs><style>.cls-1{fill:none;}.cls-2{clip-path:url(#clip-path);}.cls-3,.cls-4{fill-rule:evenodd;}.cls-3{fill:url(#Áåçûìÿííûé_ãðàäèåíò_109);}.cls-4{fill:url(#Áåçûìÿííûé_ãðàäèåíò_109-2);}</style><clipPath id="clip-path"><rect class="cls-1" width="700" height="400"/></clipPath><linearGradient id="Áåçûìÿííûé_ãðàäèåíò_109" x1="610.67" y1="280.01" x2="610.67" y2="272.39" gradientUnits="userSpaceOnUse"><stop offset="0" stop-color="#005ebd"/><stop offset="0.24" stop-color="#0056b3"/><stop offset="0.64" stop-color="#004097"/><stop offset="1" stop-color="#002979"/></linearGradient><linearGradient id="Áåçûìÿííûé_ãðàäèåíò_109-2" x1="100.42" y1="280.01" x2="100.42" y2="272.39" xlink:href="#Áåçûìÿííûé_ãðàäèåíò_109"/></defs><g class="cls-2"><g id="land"><path class="cls-3" d="M700,272.69l-41.33,2.9-10.34-1.45-3,3.16s-5.66.39-17.5-1.71c0,0-21.33-1-35.66,1.71l-2.45,1.2H574.17a18.43,18.43,0,0,0-1.34-5.81s-6.36-1.24-10.5,1.28l-2,3.33-39,2.71H700Z"/><path class="cls-4" d="M0,272.39l32.5.3,2.25,2.9H38l9,1.71h63.75L145.66,280V277.3s1.31-3,17.34-4.91l4.75,4.91,3.82-1.71L201,280H-.16Z"/></g></g></svg>