<svg id="sky" xmlns="http://www.w3.org/2000/svg" xmlns:xlink="http://www.w3.org/1999/xlink" viewBox="0 0 700 400"><defs><style>.cls-1{fill:none;}.cls-2{clip-path:url(#clip-path);}.cls-3,.cls-4{fill:#86ffff;}.cls-11,.cls-4,.cls-6,.cls-7,.cls-9{fill-rule:evenodd;}.cls-5,.cls-6{fill:#4799fc;}.cls-10,.cls-7{fill:#96bfff;}.cls-8,.cls-9{fill:#47cafc;}.cls-11,.cls-12{fill:#fff;}</style><clipPath id="clip-path"><rect class="cls-1" x="1.2" y="-0.71" width="700" height="400"/></clipPath></defs><g class="cls-2"><g id="stars"><circle class="cls-3" cx="575.49" cy="6.28" r="0.45"/><path class="cls-4" d="M688.2,34.52a.45.45,0,1,1-.45-.45A.45.45,0,0,1,688.2,34.52Z"/><path class="cls-4" d="M539,29.69a.45.45,0,1,1-.45-.44A.45.45,0,0,1,539,29.69Z"/><circle class="cls-5" cx="555.54" cy="47.24" r="0.45"/><circle class="cls-5" cx="510.43" cy="11.42" r="0.45"/><path class="cls-6" d="M489.77,1.25a.45.45,0,1,1-.44-.45A.44.44,0,0,1,489.77,1.25Z"/><path class="cls-7" d="M523.34,11.8a.45.45,0,1,1-.45-.44A.45.45,0,0,1,523.34,11.8Z"/><path class="cls-7" d="M341.59,41.64a.45.45,0,1,1-.45-.45A.45.45,0,0,1,341.59,41.64Z"/><path class="cls-7" d="M394.34,26.38a.45.45,0,1,1-.45-.45A.45.45,0,0,1,394.34,26.38Z"/><path class="cls-7" d="M517.69,11a.45.45,0,1,1-.44-.45A.44.44,0,0,1,517.69,11Z"/><path class="cls-7" d="M426.4,22.66a.45.45,0,1,1-.45-.45A.45.45,0,0,1,426.4,22.66Z"/><circle class="cls-8" cx="585.88" cy="51.57" r="0.45"/><path class="cls-6" d="M543.31,32.85a.45.45,0,1,1-.44-.44A.45.45,0,0,1,543.31,32.85Z"/><path class="cls-6" d="M593.3,28.38a.45.45,0,1,1-.45-.44A.45.45,0,0,1,593.3,28.38Z"/><circle class="cls-5" cx="324.12" cy="70.2" r="0.45"/><path class="cls-6" d="M607,28.86a.45.45,0,1,1-.45-.45A.45.45,0,0,1,607,28.86Z"/><path class="cls-6" d="M348.13,93.55a.45.45,0,1,1-.44-.44A.45.45,0,0,1,348.13,93.55Z"/><circle class="cls-5" cx="638.5" cy="57.1" r="0.45"/><circle class="cls-5" cx="637.43" cy="23.1" r="0.45"/><circle class="cls-5" cx="353.53" cy="38.5" r="0.45"/><path class="cls-6" d="M298.67,90.74a.45.45,0,1,1-.44-.45A.44.44,0,0,1,298.67,90.74Z"/><circle class="cls-5" cx="308.35" cy="27.27" r="0.45"/><circle class="cls-5" cx="599.35" cy="38.84" r="0.45"/><circle class="cls-8" cx="334.04" cy="77.59" r="0.45"/><circle class="cls-8" cx="631.4" cy="20.19" r="0.45"/><circle class="cls-8" cx="371.23" cy="26.82" r="0.45"/><circle class="cls-8" cx="295.93" cy="60.52" r="0.45"/><circle class="cls-8" cx="484.92" cy="43.47" r="0.45"/><path class="cls-9" d="M664.92,10.35a.45.45,0,1,1-.45-.45A.45.45,0,0,1,664.92,10.35Z"/><path class="cls-9" d="M683.17,151.81a.45.45,0,1,1-.45-.45A.45.45,0,0,1,683.17,151.81Z"/><path class="cls-9" d="M569.48,20.5a.45.45,0,1,1-.44-.45A.45.45,0,0,1,569.48,20.5Z"/><circle class="cls-8" cx="577.46" cy="14.37" r="0.45"/><circle class="cls-8" cx="532.8" cy="17.66" r="0.45"/><circle class="cls-3" cx="314.36" cy="22.01" r="0.45"/><circle class="cls-5" cx="286.26" cy="3.73" r="0.45"/><circle class="cls-5" cx="170.18" cy="87.72" r="0.45"/><circle class="cls-10" cx="143.97" cy="67.33" r="0.45"/><path class="cls-7" d="M117.43,34a.45.45,0,1,1-.45-.44A.45.45,0,0,1,117.43,34Z"/><circle class="cls-10" cx="169.73" cy="18.69" r="0.45"/><circle class="cls-10" cx="219.48" cy="40.45" r="0.45"/><circle class="cls-10" cx="293.08" cy="3.29" r="0.45"/><path class="cls-7" d="M202.23,15a.45.45,0,1,1-.44-.45A.45.45,0,0,1,202.23,15Z"/><circle class="cls-5" cx="99.96" cy="62.52" r="0.45"/><path class="cls-6" d="M124,85.87a.45.45,0,1,1-.44-.45A.44.44,0,0,1,124,85.87Z"/><path class="cls-6" d="M129.82,30.82a.45.45,0,1,1-.45-.45A.45.45,0,0,1,129.82,30.82Z"/><path class="cls-6" d="M222.35,54.18a.45.45,0,1,1-.45-.45A.45.45,0,0,1,222.35,54.18Z"/><circle class="cls-5" cx="74.07" cy="83.05" r="0.45"/><circle class="cls-5" cx="84.19" cy="19.58" r="0.45"/><circle class="cls-5" cx="144.41" cy="51.06" r="0.45"/><path class="cls-9" d="M110.32,69.9a.45.45,0,1,1-.45-.44A.45.45,0,0,1,110.32,69.9Z"/><path class="cls-9" d="M147.51,19.14a.45.45,0,1,1-.44-.45A.44.44,0,0,1,147.51,19.14Z"/><path class="cls-11" d="M273.73,45.94a.45.45,0,1,1-.44-.44A.45.45,0,0,1,273.73,45.94Z"/><circle class="cls-12" cx="262.67" cy="112.48" r="0.45"/><circle class="cls-12" cx="307.26" cy="112.04" r="0.45"/><path class="cls-11" d="M240.67,81.9a.45.45,0,1,1-.45-.44A.45.45,0,0,1,240.67,81.9Z"/><path class="cls-9" d="M245.88,34.85a.45.45,0,1,1-.44-.45A.44.44,0,0,1,245.88,34.85Z"/><path class="cls-9" d="M187.66,51.3a.45.45,0,0,1-.45.45.45.45,0,0,1,0-.9A.45.45,0,0,1,187.66,51.3Z"/><path class="cls-7" d="M65.15,21.46a.45.45,0,1,1-.44-.45A.44.44,0,0,1,65.15,21.46Z"/><circle class="cls-10" cx="167.21" cy="27.95" r="0.45"/><path class="cls-6" d="M48.13,50a.45.45,0,1,1-.44-.45A.45.45,0,0,1,48.13,50Z"/><path class="cls-6" d="M71.7,73.37a.45.45,0,1,1-.45-.45A.45.45,0,0,1,71.7,73.37Z"/><circle class="cls-5" cx="57.15" cy="101.06" r="0.45"/><path class="cls-6" d="M77.55,18.32a.45.45,0,1,1-.45-.45A.45.45,0,0,1,77.55,18.32Z"/><path class="cls-6" d="M170.08,41.68a.45.45,0,1,1-.45-.44A.45.45,0,0,1,170.08,41.68Z"/><circle class="cls-5" cx="21.79" cy="70.55" r="0.45"/><circle class="cls-5" cx="31.92" cy="7.09" r="0.45"/><path class="cls-9" d="M58.05,57.41A.45.45,0,1,1,57.6,57,.45.45,0,0,1,58.05,57.41Z"/><circle class="cls-8" cx="134.94" cy="38.8" r="0.45"/><circle class="cls-8" cx="213.68" cy="44.3" r="0.45"/><path class="cls-9" d="M199,69.9a.45.45,0,1,1-.45-.44A.45.45,0,0,1,199,69.9Z"/><circle class="cls-8" cx="153.87" cy="73.19" r="0.45"/><circle class="cls-8" cx="265.61" cy="40.89" r="0.45"/><circle class="cls-5" cx="267.91" cy="25.34" r="0.45"/><path class="cls-6" d="M628.2,9.06a.45.45,0,1,1-.44-.45A.44.44,0,0,1,628.2,9.06Z"/><circle class="cls-5" cx="673.4" cy="24.21" r="0.45"/><circle class="cls-5" cx="682.28" cy="6.97" r="0.45"/><path class="cls-4" d="M624.21,39.09a.45.45,0,1,1-.44-.45A.44.44,0,0,1,624.21,39.09Z"/><path class="cls-6" d="M646.1,42.79a.45.45,0,1,1-.45-.44A.45.45,0,0,1,646.1,42.79Z"/><path class="cls-4" d="M208.33,133.93a.45.45,0,1,1-.45-.45A.45.45,0,0,1,208.33,133.93Z"/><path class="cls-4" d="M139.89,151a.45.45,0,1,1-.45-.45A.45.45,0,0,1,139.89,151Z"/><circle class="cls-3" cx="269.87" cy="165.88" r="0.45"/><path class="cls-4" d="M606.56,237.91a.45.45,0,1,1-.45-.45A.45.45,0,0,1,606.56,237.91Z"/><circle class="cls-10" cx="162.36" cy="129.62" r="0.45"/><circle class="cls-8" cx="149.83" cy="196.28" r="0.45"/><circle class="cls-5" cx="156.81" cy="173.09" r="0.45"/><circle class="cls-5" cx="170.51" cy="173.56" r="0.45"/><circle class="cls-5" cx="202.45" cy="201.81" r="0.45"/><circle class="cls-5" cx="201.38" cy="167.81" r="0.45"/><circle class="cls-5" cx="164.78" cy="143.35" r="0.45"/><path class="cls-6" d="M355.33,140a.45.45,0,1,1-.44-.45A.45.45,0,0,1,355.33,140Z"/><circle class="cls-5" cx="163.31" cy="183.54" r="0.45"/><path class="cls-6" d="M287.06,152.53a.45.45,0,1,1-.45-.45A.45.45,0,0,1,287.06,152.53Z"/><circle class="cls-5" cx="77.74" cy="219.09" r="0.45"/><path class="cls-4" d="M267.21,142.46a.45.45,0,1,1-.45-.45A.45.45,0,0,1,267.21,142.46Z"/><path class="cls-6" d="M289.09,146.16a.45.45,0,1,1-.44-.44A.45.45,0,0,1,289.09,146.16Z"/><path class="cls-6" d="M332.7,167.69a.45.45,0,1,1-.44-.45A.44.44,0,0,1,332.7,167.69Z"/><circle class="cls-8" cx="195.35" cy="164.9" r="0.45"/><circle class="cls-12" cx="216.17" cy="135.12" r="0.45"/><path class="cls-11" d="M412.2,219.53a.45.45,0,1,1-.45-.44A.45.45,0,0,1,412.2,219.53Z"/><path class="cls-11" d="M299.12,221.93a.45.45,0,1,1-.45-.45A.45.45,0,0,1,299.12,221.93Z"/><path class="cls-11" d="M126.59,221.48a.45.45,0,0,1-.45.45.45.45,0,0,1,0-.89A.45.45,0,0,1,126.59,221.48Z"/><circle class="cls-8" cx="228.43" cy="155.05" r="0.45"/><circle class="cls-8" cx="191.69" cy="136.58" r="0.45"/><circle class="cls-8" cx="156.56" cy="133.48" r="0.45"/><circle class="cls-8" cx="141.42" cy="159.08" r="0.45"/><circle class="cls-8" cx="204.65" cy="142.91" r="0.45"/><circle class="cls-8" cx="352.38" cy="134.39" r="0.45"/><circle class="cls-5" cx="319.76" cy="172.21" r="0.45"/><path class="cls-6" d="M283.39,152.51a.45.45,0,1,1-.45-.45A.45.45,0,0,1,283.39,152.51Z"/><circle class="cls-5" cx="98.17" cy="218.64" r="0.45"/><circle class="cls-5" cx="191.71" cy="153.76" r="0.45"/><circle class="cls-5" cx="237.35" cy="168.92" r="0.45"/><path class="cls-9" d="M317.7,166.57a.45.45,0,1,1-.45-.44A.45.45,0,0,1,317.7,166.57Z"/><circle class="cls-5" cx="246.23" cy="151.68" r="0.45"/><circle class="cls-5" cx="277.1" cy="145.93" r="0.45"/><path class="cls-4" d="M188.17,183.79a.45.45,0,1,1-.45-.44A.45.45,0,0,1,188.17,183.79Z"/><circle class="cls-5" cx="209.6" cy="187.5" r="0.45"/><path class="cls-9" d="M364.37,164.12a.45.45,0,1,1-.45-.45A.45.45,0,0,1,364.37,164.12Z"/><path class="cls-9" d="M209.16,143.32a.45.45,0,1,1-.45-.44A.45.45,0,0,1,209.16,143.32Z"/><path class="cls-4" d="M232.83,98.85a.45.45,0,1,1-.45-.45A.45.45,0,0,1,232.83,98.85Z"/><path class="cls-11" d="M241.11,100a.45.45,0,1,1-.44-.45A.45.45,0,0,1,241.11,100Z"/><path class="cls-11" d="M15.65,39.25a.45.45,0,1,1-.45-.45A.45.45,0,0,1,15.65,39.25Z"/><path class="cls-11" d="M88.23,209.63a.45.45,0,1,1-.44-.45A.45.45,0,0,1,88.23,209.63Z"/><circle class="cls-8" cx="216.19" cy="101.51" r="0.45"/><path class="cls-9" d="M256.61,67.33a.45.45,0,1,1-.45-.44A.45.45,0,0,1,256.61,67.33Z"/><path class="cls-9" d="M229.6,107.83a.45.45,0,1,1-.45-.45A.45.45,0,0,1,229.6,107.83Z"/><circle class="cls-8" cx="233.21" cy="108.25" r="0.45"/><circle class="cls-8" cx="51" cy="101.51" r="0.45"/><circle class="cls-8" cx="349.27" cy="98.85" r="0.45"/><path class="cls-6" d="M395.93,150.33a.45.45,0,1,1-.45-.45A.45.45,0,0,1,395.93,150.33Z"/><path class="cls-6" d="M359.11,130.63a.45.45,0,1,1-.45-.45A.45.45,0,0,1,359.11,130.63Z"/><path class="cls-6" d="M373.29,178a.45.45,0,1,1-.44-.45A.44.44,0,0,1,373.29,178Z"/><path class="cls-9" d="M393.42,144.69a.45.45,0,1,1-.45-.44A.45.45,0,0,1,393.42,144.69Z"/></g></g></svg>